<svg xmlns="http://www.w3.org/2000/svg" version="1.1" xmlns:xlink="http://www.w3.org/1999/xlink" xmlns:svgjs="http://svgjs.dev/svgjs" width="1500" height="1500" viewBox="0 0 1500 1500"><g transform="matrix(1,0,0,1,-0.14331983805664095,-0.14331983805664095)"><svg viewBox="0 0 247 247" data-background-color="#ffffff" preserveAspectRatio="xMidYMid meet" height="1500" width="1500" xmlns="http://www.w3.org/2000/svg" xmlns:xlink="http://www.w3.org/1999/xlink"><g id="tight-bounds" transform="matrix(1,0,0,1,0.02359999999998763,0.02359999999998763)"><svg viewBox="0 0 246.95280000000002 246.95280000000002" height="246.95280000000002" width="246.95280000000002"><g><svg viewBox="0 0 246.95280000000002 246.95280000000002" height="246.95280000000002" width="246.95280000000002"><g><svg viewBox="0 0 246.95280000000002 246.95280000000002" height="246.95280000000002" width="246.95280000000002"><g><svg viewBox="0 0 246.95280000000002 246.95280000000002" height="246.95280000000002" width="246.95280000000002"><g id="textblocktransform"><svg viewBox="0 0 246.95280000000002 246.95280000000002" height="246.95280000000002" width="246.95280000000002" id="textblock"><g><svg viewBox="0 0 246.95280000000002 246.95280000000002" height="246.95280000000002" width="246.95280000000002"><g transform="matrix(1,0,0,1,50.71723353624782,50.71723353624782)"><svg viewBox="0 0 145.5183329275044 145.5183329275044" height="145.5183329275044" width="145.5183329275044"><g id="icon-0"><circle r="73" cx="72.7591664637522" cy="72.7591664637522" fill="#000000" data-fill-palette-color="accent"></circle><svg xmlns="http://www.w3.org/2000/svg" version="1.1" data-icon="task" data-container-transform="translate(0 34)" viewBox="0 35.281 128 58.719" x="21.827749939125656" y="21.827749939125656" height="101.86283304925308" width="101.86283304925308" class="icon-jxe-0" data-fill-palette-color="quaternary" id="jxe-0"><path d="M58.781 35.281L27.718 66.25 14.749 53.094 9.061 58.719 24.842 74.719 27.686 77.563 30.53 74.719 64.436 40.938zM3.5 38C1.533 38 0 39.533 0 41.5V90.5C0 92.467 1.533 94 3.5 94H52.5C54.467 94 56 92.467 56 90.5V54.094L52 58.094V90H4V42H47.188L51.188 38zM68 50V54H128V50zM68 62V66H118V62zM68 74V78H122V74z" fill="#ffffff" data-fill-palette-color="quaternary"></path></svg></g></svg></g><g id="text-0"><path d="M9.889 75.602l-2.856 8.021-2.766-0.765 3.23-9.073c0.138-0.039 0.338-0.055 0.599-0.05 0.261 0.005 0.522 0.054 0.781 0.147v0c0.415 0.148 0.722 0.374 0.921 0.678 0.199 0.305 0.229 0.652 0.091 1.042zM1.492 90.656l2.872-8.07 2.766 0.765-3.246 9.122c-0.158 0.032-0.367 0.045-0.629 0.039-0.261-0.005-0.522-0.054-0.781-0.146v0c-0.441-0.157-0.748-0.383-0.921-0.679-0.179-0.298-0.199-0.641-0.061-1.031zM26.232 92.212l-20.805-7.405 1.123-3.154 21.973 7.82c0.006 0.148-0.007 0.37-0.04 0.666-0.032 0.296-0.099 0.586-0.201 0.872v0c-0.203 0.571-0.473 0.958-0.807 1.16-0.335 0.202-0.75 0.216-1.243 0.041z" fill="#000000" data-fill-palette-color="primary"></path><path d="M42.588 60.553v0 0c0.704-0.919 1.193-1.75 1.468-2.494 0.275-0.744 0.425-1.314 0.451-1.711v0l-4.766-3.651-2.69 4.396c-0.788 1.21-1.181 2.25-1.179 3.119-0.003 0.865 0.389 1.6 1.177 2.203v0c0.809 0.62 1.691 0.783 2.644 0.49 0.954-0.293 1.919-1.077 2.895-2.352zM28.674 49.948v0 0c1.458-1.903 3.041-3.086 4.748-3.548 1.708-0.462 3.48 0.01 5.318 1.418v0l7.786 5.963c0.481 0.369 0.776 0.742 0.885 1.121 0.109 0.379 0.131 0.838 0.065 1.377v0c-0.118 0.743-0.391 1.644-0.821 2.703-0.43 1.059-1.063 2.136-1.901 3.23v0c-1.579 2.062-3.205 3.346-4.878 3.853-1.672 0.507-3.274 0.173-4.805-1v0c-1.422-1.089-2.149-2.401-2.18-3.934-0.026-1.53 0.532-3.198 1.673-5.006v0l3.11-5.011-0.919-0.704c-1.094-0.838-2.144-1.121-3.15-0.851-1.006 0.271-1.936 0.964-2.79 2.08v0c-0.691 0.902-1.22 1.864-1.586 2.886-0.366 1.021-0.628 1.975-0.785 2.861v0c-0.287 0.058-0.589 0.078-0.906 0.061-0.317-0.017-0.584-0.109-0.803-0.277v0c-0.569-0.436-0.763-1.088-0.584-1.957v0c0.146-0.825 0.435-1.689 0.865-2.591 0.431-0.902 0.983-1.794 1.658-2.674z" fill="#000000" data-fill-palette-color="primary"></path><path d="M71.517 31.414v0 0c1 1.452 1.249 2.954 0.745 4.506-0.504 1.552-1.766 3.023-3.786 4.414v0c-1.73 1.192-3.324 1.896-4.78 2.113-1.457 0.217-2.404 0.008-2.842-0.627v0c-0.188-0.272-0.297-0.59-0.33-0.953-0.032-0.363 0.044-0.725 0.23-1.087v0c0.91 0.009 1.898-0.086 2.966-0.285 1.067-0.2 2.125-0.661 3.175-1.384v0c2.36-1.626 2.993-3.233 1.899-4.821v0c-0.453-0.658-1.023-1.06-1.71-1.207-0.686-0.146-1.478-0.045-2.374 0.305v0l-3.356 1.195c-1.619 0.613-2.992 0.781-4.12 0.504-1.128-0.277-2.059-0.949-2.793-2.016v0c-0.828-1.203-1.06-2.583-0.694-4.14 0.366-1.557 1.551-3.025 3.554-4.405v0c1.067-0.735 2.071-1.268 3.014-1.599 0.943-0.331 1.757-0.474 2.441-0.427 0.685 0.047 1.168 0.275 1.45 0.683v0c0.203 0.295 0.309 0.607 0.318 0.936 0.009 0.329-0.073 0.636-0.244 0.921v0c-0.397 0.006-0.88 0.046-1.449 0.119-0.568 0.074-1.187 0.232-1.856 0.475-0.669 0.243-1.344 0.599-2.025 1.068v0c-1.004 0.692-1.68 1.441-2.026 2.25-0.347 0.808-0.278 1.563 0.206 2.267v0c0.344 0.499 0.821 0.815 1.43 0.947 0.61 0.132 1.363 0.023 2.26-0.327v0l2.756-1.045c1.793-0.7 3.345-0.924 4.656-0.672 1.315 0.257 2.41 1.021 3.285 2.292z" fill="#000000" data-fill-palette-color="primary"></path><path d="M98.85 9.384l-5.661 9.181-2.45-0.932 6.33-11.506c0.64-0.168 1.181-0.169 1.621-0.002 0.441 0.167 0.73 0.475 0.868 0.922v0c0.113 0.369 0.103 0.732-0.032 1.091-0.135 0.359-0.36 0.774-0.676 1.246zM101.848 24.041l-11.03-5.871 1.821-1.987 12.81 5.928c0.126 0.596 0.09 1.111-0.108 1.547-0.197 0.436-0.546 0.73-1.047 0.885v0c-0.395 0.122-0.79 0.128-1.184 0.018-0.394-0.109-0.815-0.283-1.262-0.52zM90.6 27.157l-2.885-9.372 3.307-0.499 3.091 10.044c-0.115 0.093-0.295 0.213-0.538 0.361-0.243 0.147-0.523 0.269-0.838 0.366v0c-0.553 0.17-1.009 0.188-1.368 0.053-0.359-0.135-0.615-0.452-0.769-0.953zM86.605 2.936l4.891 15.891-3.306 0.499-5.098-16.563c0.115-0.093 0.301-0.215 0.557-0.366 0.256-0.151 0.542-0.275 0.859-0.373v0c0.553-0.17 1.002-0.186 1.348-0.047 0.345 0.139 0.595 0.458 0.749 0.959z" fill="#000000" data-fill-palette-color="primary"></path><path d="M154.704 0.741l-3.316 14.251-3.252-0.799 2.97-12.762c0.125-0.537 0.386-0.929 0.783-1.176 0.399-0.254 0.866-0.318 1.403-0.193v0c0.295 0.069 0.58 0.181 0.855 0.337 0.276 0.149 0.462 0.263 0.557 0.342zM161.129 16.58l-11.081-2.579 0.647-2.778 11.966 2.785c0.049 0.153 0.088 0.353 0.116 0.6 0.027 0.247 0.01 0.504-0.053 0.773v0c-0.1 0.429-0.29 0.76-0.57 0.992-0.28 0.232-0.622 0.301-1.025 0.207zM165.133 5.756l-12.49-2.906 0.649-2.788 13.376 3.112c0.054 0.133 0.093 0.329 0.117 0.59 0.024 0.26 0.005 0.525-0.057 0.793v0c-0.1 0.429-0.29 0.76-0.57 0.992-0.28 0.232-0.622 0.301-1.025 0.207zM146.11 22.899l3.047-13.094 3.302 0.768-3.328 14.302c-0.14-0.004-0.359-0.006-0.657-0.005-0.297 0.002-0.594-0.032-0.889-0.1v0c-0.59-0.137-1.012-0.363-1.265-0.676-0.252-0.313-0.322-0.712-0.21-1.195z" fill="#000000" data-fill-palette-color="primary"></path><path d="M178.695 34.676l4.618-8.463 2.665 2.019-4.955 9.08c-0.147-0.018-0.358-0.062-0.633-0.133-0.275-0.072-0.557-0.186-0.848-0.345v0c-0.508-0.277-0.839-0.591-0.993-0.942-0.154-0.351-0.105-0.756 0.146-1.216zM193.249 14.907l-8.023 14.704-2.685-1.983 8.379-15.357c0.147 0.018 0.365 0.065 0.652 0.144 0.287 0.078 0.564 0.19 0.829 0.334v0c0.532 0.29 0.869 0.608 1.011 0.952 0.142 0.344 0.087 0.746-0.163 1.206z" fill="#000000" data-fill-palette-color="primary"></path><path d="M215.761 55.329v0 0c-1.461 1.433-3.002 2.404-4.624 2.915-1.622 0.511-3.221 0.554-4.795 0.129-1.574-0.424-3.027-1.315-4.358-2.673v0c-1.331-1.357-2.201-2.834-2.61-4.431-0.404-1.592-0.335-3.194 0.207-4.806 0.542-1.612 1.543-3.135 3.003-4.567v0c1.475-1.447 3.024-2.416 4.646-2.908 1.622-0.491 3.225-0.519 4.809-0.085 1.589 0.439 3.039 1.327 4.351 2.665v0c1.312 1.338 2.165 2.798 2.56 4.38 0.394 1.582 0.33 3.179-0.192 4.791-0.522 1.612-1.521 3.142-2.997 4.59zM214.443 43.478v0 0c-1.293-1.318-2.79-1.91-4.491-1.775-1.697 0.14-3.361 1.01-4.995 2.612v0c-1.657 1.626-2.577 3.271-2.758 4.935-0.177 1.669 0.401 3.183 1.732 4.54v0c1.312 1.338 2.807 1.927 4.484 1.768 1.677-0.159 3.335-1.042 4.973-2.649v0c1.633-1.602 2.545-3.239 2.736-4.913 0.191-1.674-0.369-3.18-1.681-4.518z" fill="#000000" data-fill-palette-color="primary"></path><path d="M235.922 82.351v0 0c-1.792 0.224-3.597 0.415-5.415 0.575-1.825 0.163-3.537 0.3-5.137 0.412-1.6 0.112-2.993 0.181-4.179 0.207v0c-0.213-0.149-0.412-0.334-0.596-0.555-0.184-0.221-0.368-0.547-0.551-0.978v0c-0.175-0.412-0.266-0.819-0.273-1.221-0.006-0.402 0.116-0.731 0.366-0.986v0c0.399-0.469 1.013-1.068 1.842-1.795 0.829-0.727 1.791-1.526 2.888-2.397 1.103-0.874 2.245-1.772 3.424-2.694 1.18-0.922 2.329-1.793 3.448-2.613 1.118-0.82 2.116-1.537 2.993-2.15v0c0.253 0.102 0.512 0.254 0.778 0.456 0.265 0.201 0.479 0.492 0.641 0.872v0c0.205 0.482 0.226 0.9 0.062 1.254-0.164 0.354-0.516 0.706-1.056 1.056v0c-0.968 0.681-2.061 1.454-3.281 2.317-1.22 0.864-2.421 1.734-3.605 2.613-1.19 0.881-2.254 1.678-3.193 2.392-0.936 0.72-1.631 1.252-2.084 1.595v0l0.065 0.152c0.695-0.056 1.825-0.163 3.39-0.32 1.572-0.16 3.372-0.32 5.4-0.479 2.028-0.16 4.085-0.324 6.17-0.492v0c0.213 0.149 0.411 0.349 0.593 0.601 0.182 0.252 0.343 0.543 0.483 0.872v0c0.194 0.456 0.274 0.872 0.239 1.246-0.035 0.374-0.196 0.682-0.483 0.924v0c-1.49 1.353-2.965 2.655-4.425 3.906-1.466 1.253-2.765 2.36-3.898 3.321-1.133 0.961-1.979 1.666-2.537 2.113v0l0.081 0.19c2.505-0.377 5.199-0.776 8.083-1.194 2.878-0.416 5.652-0.935 8.323-1.555v0c0.379 0.258 0.677 0.64 0.892 1.147v0c0.183 0.431 0.228 0.816 0.133 1.157-0.095 0.34-0.358 0.602-0.789 0.785v0c-0.279 0.119-0.846 0.263-1.702 0.433-0.856 0.17-1.876 0.342-3.06 0.516-1.184 0.174-2.45 0.347-3.8 0.517-1.356 0.173-2.674 0.322-3.954 0.447-1.282 0.119-2.447 0.214-3.495 0.286-1.048 0.072-1.874 0.101-2.478 0.089v0c-0.155-0.084-0.34-0.252-0.552-0.506-0.213-0.254-0.4-0.571-0.562-0.951v0c-0.442-1.04-0.461-1.751-0.055-2.133v0c0.762-0.744 1.724-1.632 2.886-2.666 1.162-1.034 2.436-2.13 3.823-3.289 1.38-1.156 2.766-2.315 4.157-3.477z" fill="#000000" data-fill-palette-color="primary"></path><path d="M8.295 127.838c0-1.715 1.39-3.105 3.105-3.105 1.715 0 3.105 1.39 3.105 3.105 0 1.715-1.39 3.105-3.105 3.105-1.715 0-3.105-1.39-3.105-3.105z" fill="#000000" data-fill-palette-color="primary"></path><path d="M237.97 127.838c0-1.715 1.39-3.105 3.105-3.105 1.715 0 3.105 1.39 3.105 3.105 0 1.715-1.39 3.105-3.105 3.105-1.715 0-3.105-1.39-3.105-3.105z" fill="#000000" data-fill-palette-color="primary"></path></g><g id="text-1"><path d="M18.845 161.17v0 0c-0.19-0.655-0.573-1.136-1.149-1.442-0.57-0.308-1.268-0.343-2.096-0.103v0c-0.821 0.238-1.394 0.633-1.721 1.187-0.323 0.545-0.384 1.162-0.185 1.85v0c0.117 0.404 0.271 0.725 0.462 0.964 0.191 0.239 0.39 0.443 0.597 0.612v0c-0.029 0.123-0.077 0.23-0.144 0.321-0.067 0.091-0.163 0.155-0.288 0.192v0c-0.271 0.079-0.56-0.053-0.868-0.394-0.302-0.35-0.54-0.823-0.712-1.419v0c-0.194-0.668-0.237-1.301-0.13-1.898 0.098-0.602 0.365-1.128 0.802-1.578 0.436-0.449 1.052-0.789 1.845-1.018v0c0.781-0.226 1.477-0.263 2.088-0.11 0.619 0.158 1.137 0.459 1.553 0.905 0.418 0.453 0.718 0.993 0.9 1.622v0c0.173 0.596 0.217 1.121 0.134 1.575-0.092 0.45-0.267 0.712-0.525 0.787v0c-0.119 0.035-0.232 0.028-0.339-0.02-0.105-0.041-0.196-0.108-0.274-0.2v0c0.078-0.252 0.132-0.522 0.163-0.812 0.04-0.284 0.002-0.625-0.113-1.021z" fill="#000000" data-fill-palette-color="primary"></path><path d="M20.08 172.677v0 0c-0.697 0.261-1.353 0.355-1.968 0.283-0.615-0.072-1.155-0.296-1.62-0.674-0.462-0.371-0.816-0.883-1.059-1.534v0c-0.241-0.645-0.312-1.266-0.211-1.863 0.103-0.59 0.363-1.114 0.78-1.572 0.42-0.451 0.978-0.807 1.675-1.067v0c0.71-0.265 1.369-0.361 1.978-0.287 0.618 0.078 1.159 0.306 1.624 0.683 0.458 0.38 0.807 0.89 1.046 1.529v0c0.241 0.645 0.312 1.259 0.213 1.84-0.105 0.584-0.366 1.107-0.78 1.571-0.408 0.462-0.968 0.825-1.678 1.091zM21.395 168.522v0 0c-0.234-0.626-0.644-1.043-1.228-1.25-0.592-0.205-1.278-0.162-2.059 0.13v0c-0.787 0.294-1.336 0.705-1.646 1.233-0.308 0.534-0.341 1.124-0.1 1.769v0c0.241 0.645 0.655 1.064 1.242 1.257 0.58 0.195 1.261 0.146 2.042-0.146v0c0.781-0.292 1.329-0.703 1.646-1.233 0.31-0.528 0.345-1.114 0.103-1.76z" fill="#000000" data-fill-palette-color="primary"></path><path d="M24.932 179.725v0l-1.562 0.759-0.528-1.088 1.477-0.718c0.446-0.217 0.71-0.502 0.791-0.856 0.084-0.363 0.022-0.758-0.186-1.185v0c-0.136-0.279-0.313-0.526-0.532-0.74-0.216-0.224-0.427-0.398-0.632-0.52v0l-2.324 1.129-0.528-1.087 2.267-1.103c0.18-0.087 0.354-0.122 0.524-0.105 0.16 0.014 0.346 0.089 0.556 0.224v0c0.272 0.166 0.556 0.411 0.852 0.735 0.292 0.318 0.532 0.668 0.718 1.052v0c0.223 0.458 0.352 0.897 0.388 1.317 0.029 0.422-0.035 0.779-0.192 1.07v0c-0.029 0.083-0.057 0.15-0.086 0.202-0.031 0.061-0.072 0.127-0.122 0.198v0c-0.081 0.116-0.197 0.241-0.346 0.375-0.146 0.125-0.325 0.238-0.535 0.341zM26.838 183.716v0l-1.533 0.745-0.529-1.087 1.477-0.719c0.446-0.217 0.71-0.502 0.791-0.855 0.087-0.356 0.027-0.748-0.181-1.176v0c-0.154-0.316-0.366-0.588-0.638-0.816-0.275-0.234-0.592-0.406-0.951-0.514v0l0.577-0.821c0.35 0.121 0.703 0.328 1.061 0.622 0.351 0.297 0.646 0.69 0.884 1.179v0c0.238 0.489 0.367 0.951 0.386 1.386 0.023 0.425-0.075 0.814-0.294 1.166-0.217 0.358-0.566 0.655-1.05 0.889zM18.547 176.567l3.085-1.5 0.529 1.087-3.475 1.69c-0.04-0.034-0.095-0.092-0.165-0.173-0.061-0.078-0.118-0.172-0.172-0.284v0c-0.09-0.186-0.122-0.346-0.097-0.481 0.029-0.144 0.128-0.257 0.295-0.339zM20.481 180.544l3.086-1.5 0.528 1.087-3.475 1.69c-0.04-0.034-0.096-0.095-0.169-0.182-0.064-0.084-0.12-0.175-0.168-0.274v0c-0.096-0.198-0.132-0.365-0.106-0.501 0.035-0.132 0.137-0.239 0.304-0.32zM22.415 184.522l3.086-1.501 0.528 1.088-3.475 1.69c-0.043-0.041-0.099-0.101-0.169-0.182-0.064-0.084-0.12-0.175-0.168-0.275v0c-0.099-0.204-0.135-0.371-0.105-0.5 0.035-0.132 0.137-0.239 0.303-0.32z" fill="#000000" data-fill-palette-color="primary"></path><path d="M25.756 191.506v0 0c0.347 0.563 0.77 0.994 1.269 1.294 0.502 0.29 1.06 0.415 1.676 0.376 0.617-0.048 1.278-0.289 1.982-0.723v0c0.727-0.448 1.237-0.948 1.528-1.499 0.291-0.552 0.405-1.123 0.34-1.715-0.065-0.591-0.27-1.168-0.617-1.731v0c-0.253-0.411-0.531-0.745-0.836-1.003-0.304-0.258-0.591-0.461-0.861-0.61v0c-0.227-0.119-0.411-0.175-0.553-0.169-0.139-0.003-0.294 0.048-0.465 0.152v0l-4.241 2.612 0.634 1.03 4.268-2.628c0.199 0.112 0.403 0.254 0.612 0.423 0.206 0.164 0.405 0.402 0.597 0.713v0c0.217 0.352 0.346 0.726 0.387 1.121 0.038 0.389-0.05 0.779-0.263 1.169-0.217 0.384-0.606 0.75-1.17 1.096v0c-0.81 0.498-1.508 0.678-2.095 0.539-0.588-0.14-1.066-0.509-1.434-1.108v0c-0.228-0.37-0.356-0.723-0.387-1.06-0.039-0.34-0.032-0.644 0.022-0.911v0l-0.951 0.585c-0.033 0.223-0.006 0.529 0.082 0.92 0.089 0.382 0.248 0.757 0.476 1.127zM22.682 191.324l3.273-2.016-0.607-1.045-2.913 1.793c-0.164 0.101-0.254 0.225-0.268 0.372-0.018 0.141 0.026 0.299 0.134 0.475v0c0.065 0.106 0.135 0.192 0.209 0.26 0.072 0.077 0.129 0.131 0.172 0.161z" fill="#000000" data-fill-palette-color="primary"></path><path d="M34.798 194.474v0l-1.939 1.393-0.705-0.981 1.863-1.339c0.19-0.137 0.365-0.207 0.523-0.211 0.16-0.013 0.352 0.023 0.574 0.109v0c0.293 0.112 0.622 0.317 0.988 0.614 0.366 0.297 0.71 0.669 1.032 1.116v0c0.47 0.655 0.543 1.098 0.219 1.332v0c-0.084 0.06-0.169 0.101-0.257 0.121-0.083 0.026-0.164 0.037-0.242 0.034v0c-0.044-0.096-0.103-0.214-0.179-0.355-0.08-0.146-0.166-0.284-0.259-0.413v0c-0.269-0.375-0.546-0.677-0.829-0.905-0.283-0.229-0.547-0.4-0.789-0.515zM29.863 196.532l2.853-2.05 0.563 1.084-3.063 2.201c-0.045-0.027-0.109-0.075-0.191-0.142-0.073-0.066-0.146-0.15-0.218-0.251v0c-0.121-0.168-0.18-0.321-0.177-0.458 0.004-0.147 0.082-0.275 0.233-0.384z" fill="#000000" data-fill-palette-color="primary"></path><path d="M39.817 204.429l-3.768-3.454 0.693-0.654 3.382 3.117c0.398-0.383 0.626-0.821 0.682-1.315 0.056-0.484-0.11-0.96-0.496-1.427v0c-0.395-0.478-0.897-0.733-1.505-0.766-0.599-0.032-1.222 0.219-1.87 0.755v0l-0.255 0.21c-0.568 0.568-0.868 1.161-0.902 1.779-0.034 0.618 0.203 1.235 0.712 1.851v0c0.268 0.324 0.567 0.572 0.898 0.746 0.321 0.172 0.609 0.283 0.864 0.331v0c0.016 0.139 0.007 0.262-0.027 0.372-0.03 0.105-0.092 0.197-0.188 0.276v0c-0.149 0.123-0.355 0.155-0.618 0.095-0.264-0.059-0.547-0.196-0.85-0.411-0.308-0.21-0.602-0.485-0.883-0.825v0c-0.496-0.6-0.815-1.208-0.957-1.823-0.142-0.615-0.097-1.22 0.135-1.814 0.237-0.589 0.666-1.141 1.287-1.654v0c0.441-0.364 0.886-0.625 1.337-0.784 0.45-0.158 0.89-0.221 1.317-0.191 0.428 0.031 0.837 0.153 1.228 0.366 0.386 0.208 0.735 0.5 1.047 0.878v0c0.391 0.473 0.632 0.97 0.725 1.492 0.097 0.528 0.053 1.042-0.132 1.544-0.19 0.506-0.518 0.952-0.986 1.338v0c-0.17 0.14-0.325 0.202-0.465 0.183-0.14-0.018-0.275-0.09-0.405-0.215z" fill="#000000" data-fill-palette-color="primary"></path><path d="M46.962 210.522l-1.028 0.988-0.838-0.871 1.006-0.967c0.432-0.415 0.638-0.847 0.618-1.296-0.025-0.444-0.222-0.857-0.59-1.239v0c-0.272-0.283-0.58-0.494-0.923-0.633-0.343-0.138-0.668-0.218-0.974-0.238v0l0.543-0.837c0.291 0.055 0.637 0.161 1.038 0.32 0.401 0.169 0.783 0.442 1.146 0.819v0c0.578 0.601 0.889 1.248 0.934 1.941 0.044 0.702-0.266 1.374-0.932 2.013zM39.934 208.921l2.533-2.435 0.838 0.872-2.846 2.735c-0.048-0.02-0.118-0.058-0.21-0.114-0.082-0.055-0.166-0.128-0.251-0.217v0c-0.148-0.154-0.23-0.299-0.248-0.436-0.012-0.142 0.049-0.277 0.184-0.405zM43.27 212.393l2.526-2.427 0.823 0.886-2.824 2.713c-0.053-0.025-0.125-0.066-0.217-0.121-0.086-0.06-0.168-0.13-0.244-0.209v0c-0.153-0.159-0.238-0.307-0.254-0.444-0.007-0.137 0.057-0.269 0.19-0.398zM47.164 203.649l-4.284 4.117-0.838-0.872 4.605-4.425c0.053 0.025 0.123 0.068 0.209 0.129 0.091 0.055 0.18 0.128 0.267 0.217v0c0.148 0.154 0.228 0.297 0.24 0.429 0.007 0.137-0.059 0.272-0.199 0.405z" fill="#000000" data-fill-palette-color="primary"></path><path d="M52.764 217.025l-4.263-2.822 0.582-0.754 3.828 2.549c0.333-0.441 0.489-0.909 0.468-1.406-0.021-0.487-0.259-0.931-0.713-1.332v0c-0.465-0.41-1.001-0.584-1.607-0.521-0.596 0.062-1.173 0.408-1.729 1.039v0l-0.218 0.248c-0.472 0.65-0.676 1.282-0.613 1.898 0.063 0.616 0.394 1.188 0.994 1.716v0c0.315 0.278 0.65 0.476 1.004 0.596 0.344 0.12 0.646 0.184 0.905 0.192v0c0.038 0.134 0.048 0.258 0.031 0.372-0.013 0.108-0.06 0.209-0.142 0.301v0c-0.128 0.145-0.326 0.208-0.596 0.192-0.27-0.017-0.571-0.108-0.903-0.273-0.337-0.159-0.671-0.385-1.002-0.676v0c-0.584-0.515-0.994-1.065-1.231-1.651-0.237-0.585-0.287-1.19-0.151-1.813 0.142-0.619 0.479-1.231 1.012-1.836v0c0.378-0.429 0.777-0.757 1.198-0.983 0.42-0.227 0.844-0.358 1.271-0.395 0.427-0.037 0.851 0.02 1.27 0.169 0.414 0.145 0.805 0.379 1.171 0.702v0c0.46 0.405 0.776 0.859 0.95 1.361 0.178 0.506 0.216 1.021 0.112 1.545-0.108 0.529-0.363 1.021-0.764 1.476v0c-0.146 0.165-0.289 0.25-0.431 0.254-0.141 0.004-0.286-0.045-0.434-0.148z" fill="#000000" data-fill-palette-color="primary"></path><path d="M60.865 221.769v0l-0.929 1.228-0.956-0.724 0.892-1.178c0.341-0.45 0.464-0.876 0.369-1.276-0.095-0.4-0.356-0.762-0.785-1.086v0c-0.319-0.241-0.633-0.414-0.942-0.519-0.311-0.114-0.594-0.186-0.848-0.214v0l-1.578 2.085-0.964-0.73 1.54-2.035c0.129-0.17 0.269-0.281 0.419-0.331 0.149-0.06 0.348-0.078 0.597-0.053v0c0.3 0.037 0.665 0.132 1.095 0.283 0.42 0.153 0.846 0.394 1.28 0.723v0c0.731 0.553 1.183 1.154 1.356 1.804 0.164 0.651-0.018 1.325-0.546 2.023zM53.559 221.423l2.07-2.735 0.964 0.729-2.332 3.082c-0.051-0.013-0.126-0.039-0.225-0.08-0.089-0.042-0.184-0.1-0.282-0.174v0c-0.165-0.125-0.266-0.253-0.305-0.386-0.039-0.142-0.003-0.287 0.11-0.436zM57.415 224.342l2.07-2.736 0.956 0.723-2.332 3.082c-0.051-0.013-0.126-0.039-0.225-0.079-0.1-0.05-0.195-0.108-0.282-0.175v0c-0.176-0.133-0.28-0.264-0.313-0.392-0.028-0.134 0.014-0.275 0.126-0.423z" fill="#000000" data-fill-palette-color="primary"></path><path d="M66.155 228.449v0 0c-0.35 0.545-0.818 0.842-1.406 0.891-0.597 0.051-1.273-0.166-2.026-0.649v0c-0.644-0.413-1.105-0.848-1.385-1.305-0.276-0.463-0.339-0.811-0.191-1.043v0c0.067-0.104 0.161-0.187 0.282-0.249 0.115-0.065 0.247-0.091 0.395-0.079v0c0.122 0.307 0.294 0.626 0.515 0.957 0.218 0.336 0.521 0.629 0.91 0.878v0c0.881 0.565 1.514 0.549 1.897-0.048v0c0.156-0.244 0.209-0.492 0.159-0.745-0.05-0.253-0.195-0.506-0.435-0.758v0l-0.874-0.953c-0.434-0.459-0.685-0.897-0.752-1.316-0.07-0.413 0.023-0.82 0.28-1.221v0c0.286-0.447 0.718-0.718 1.295-0.814 0.572-0.1 1.231 0.09 1.98 0.57v0c0.394 0.253 0.716 0.517 0.965 0.791 0.247 0.265 0.41 0.516 0.487 0.754 0.083 0.241 0.076 0.437-0.021 0.588v0c-0.071 0.11-0.163 0.19-0.277 0.24-0.104 0.048-0.216 0.062-0.335 0.043v0c-0.063-0.131-0.147-0.287-0.252-0.469-0.105-0.182-0.244-0.365-0.419-0.551-0.177-0.196-0.394-0.375-0.649-0.539v0c-0.371-0.238-0.716-0.357-1.036-0.357-0.325-0.004-0.571 0.125-0.738 0.386v0c-0.119 0.186-0.156 0.391-0.112 0.615 0.038 0.221 0.18 0.459 0.425 0.715v0l0.739 0.781c0.489 0.502 0.785 0.99 0.889 1.466 0.095 0.478-0.009 0.952-0.31 1.421z" fill="#000000" data-fill-palette-color="primary"></path><path d="M72.18 223.488v0 0c0.106-0.185 0.261-0.303 0.465-0.353 0.203-0.05 0.401-0.021 0.592 0.089v0c0.203 0.116 0.329 0.272 0.376 0.465 0.054 0.197 0.028 0.389-0.078 0.574v0c-0.103 0.179-0.253 0.296-0.451 0.35-0.195 0.063-0.394 0.036-0.597-0.08v0c-0.191-0.11-0.315-0.268-0.371-0.474-0.06-0.201-0.038-0.391 0.064-0.571zM68.02 231.132l1.745-3.049 1.049 0.6-1.961 3.426c-0.058-0.009-0.136-0.026-0.233-0.05-0.1-0.033-0.201-0.079-0.302-0.137v0c-0.185-0.106-0.305-0.222-0.36-0.349-0.051-0.132-0.031-0.279 0.062-0.441zM72.062 226.504l-1.54 2.691-1.05-0.601 1.761-3.076c0.052 0.006 0.13 0.023 0.233 0.05 0.109 0.031 0.215 0.075 0.317 0.133v0c0.185 0.106 0.301 0.224 0.346 0.353 0.055 0.127 0.032 0.276-0.067 0.45z" fill="#000000" data-fill-palette-color="primary"></path><path d="M79.781 229.71v0 0c0.154 0.076 0.261 0.179 0.32 0.308 0.053 0.126 0.041 0.266-0.035 0.421v0c-0.058 0.117-0.216 0.312-0.473 0.585-0.26 0.279-0.582 0.604-0.965 0.975-0.389 0.369-0.8 0.75-1.233 1.143-0.435 0.4-0.866 0.775-1.293 1.125-0.43 0.356-0.813 0.659-1.151 0.907v0c-0.062 0.016-0.154 0.008-0.277-0.022-0.133-0.027-0.261-0.071-0.384-0.132v0c-0.154-0.076-0.278-0.168-0.371-0.275-0.093-0.107-0.138-0.218-0.136-0.332v0c-0.01-0.228-0.011-0.555 0-0.98 0.016-0.422 0.045-0.9 0.085-1.433 0.034-0.536 0.075-1.085 0.121-1.646 0.05-0.567 0.108-1.107 0.177-1.618 0.059-0.509 0.121-0.954 0.187-1.337v0c0.108-0.062 0.231-0.094 0.369-0.094 0.129 0.002 0.25 0.031 0.361 0.086v0c0.161 0.079 0.264 0.18 0.311 0.303 0.053 0.126 0.065 0.297 0.035 0.513v0l-0.355 2.844c-0.033 0.237-0.067 0.539-0.102 0.906-0.035 0.367-0.069 0.731-0.101 1.091-0.035 0.367-0.066 0.67-0.092 0.911v0l0.055 0.028c0.807-0.731 1.587-1.464 2.342-2.198 0.754-0.734 1.454-1.468 2.1-2.201v0c0.151-0.01 0.319 0.031 0.505 0.122z" fill="#000000" data-fill-palette-color="primary"></path><path d="M86.205 236.362l-4.956-1.252 0.3-0.904 4.456 1.138c0.169-0.526 0.161-1.02-0.024-1.482-0.181-0.452-0.552-0.793-1.114-1.02v0c-0.575-0.233-1.138-0.22-1.689 0.04-0.542 0.256-0.971 0.773-1.287 1.552v0l-0.124 0.306c-0.23 0.769-0.213 1.434 0.05 1.994 0.263 0.56 0.765 0.991 1.506 1.291v0c0.389 0.158 0.771 0.235 1.145 0.23 0.365-0.001 0.671-0.04 0.917-0.118v0c0.08 0.114 0.131 0.228 0.152 0.34 0.024 0.106 0.012 0.217-0.034 0.332v0c-0.072 0.179-0.239 0.305-0.499 0.377-0.26 0.073-0.574 0.087-0.942 0.042-0.371-0.039-0.761-0.141-1.169-0.307v0c-0.721-0.293-1.291-0.676-1.708-1.15-0.417-0.474-0.665-1.028-0.743-1.661-0.071-0.631 0.045-1.32 0.348-2.067v0c0.215-0.53 0.483-0.971 0.804-1.324 0.321-0.353 0.678-0.617 1.069-0.793 0.391-0.176 0.809-0.263 1.254-0.261 0.439-0.001 0.885 0.091 1.338 0.275v0c0.568 0.23 1.017 0.554 1.347 0.969 0.336 0.419 0.541 0.892 0.617 1.421 0.073 0.535-0.004 1.084-0.233 1.646v0c-0.083 0.204-0.19 0.332-0.322 0.382-0.132 0.051-0.285 0.052-0.459 0.004z" fill="#000000" data-fill-palette-color="primary"></path><path d="M92.672 240.19l0.605-2.062 1.16 0.34-0.585 1.993c-0.112 0.383-0.084 0.69 0.086 0.919 0.178 0.225 0.459 0.393 0.843 0.506v0c0.165 0.048 0.359 0.073 0.581 0.074 0.216-0.001 0.405-0.021 0.567-0.06v0c0.042 0.077 0.074 0.165 0.095 0.264 0.021 0.1 0.014 0.209-0.021 0.328v0c-0.062 0.212-0.239 0.35-0.531 0.415-0.29 0.059-0.656 0.023-1.099-0.107v0c-0.674-0.198-1.179-0.508-1.516-0.929-0.327-0.426-0.389-0.986-0.185-1.681zM97.017 237.308l-2.627-0.77 0.282-0.962 2.935 0.861c0.015 0.047 0.026 0.119 0.034 0.214 0.001 0.094-0.013 0.19-0.042 0.29v0c-0.045 0.152-0.116 0.26-0.214 0.325-0.106 0.069-0.229 0.084-0.368 0.042zM95.726 234.076l-1.414 4.819-1.16-0.341 1.536-5.235c0.052-0.006 0.134-0.004 0.245 0.007 0.107 0.003 0.217 0.02 0.329 0.054v0c0.205 0.06 0.345 0.144 0.422 0.253 0.081 0.117 0.095 0.265 0.042 0.443z" fill="#000000" data-fill-palette-color="primary"></path><path d="M101.31 243.477v0 0c0.417 0.093 0.769 0.129 1.055 0.108 0.288-0.027 0.498-0.065 0.629-0.114v0l0.477-2.138-1.868-0.215c-0.513-0.072-0.915-0.042-1.206 0.09-0.283 0.128-0.464 0.369-0.543 0.726v0c-0.081 0.363 0.001 0.678 0.245 0.944 0.243 0.273 0.646 0.472 1.211 0.599zM102.688 237.252v0 0c0.854 0.191 1.487 0.533 1.899 1.027 0.419 0.496 0.537 1.154 0.354 1.974v0l-0.779 3.489c-0.048 0.215-0.128 0.37-0.241 0.465-0.106 0.096-0.254 0.173-0.443 0.23v0c-0.264 0.075-0.603 0.123-1.017 0.144-0.421 0.019-0.876-0.026-1.367-0.136v0c-0.921-0.206-1.593-0.546-2.017-1.022-0.423-0.476-0.558-1.056-0.405-1.742v0c0.143-0.639 0.463-1.079 0.961-1.321 0.505-0.24 1.143-0.313 1.913-0.219v0l2.132 0.264 0.093-0.413c0.11-0.491 0.044-0.879-0.195-1.166-0.245-0.295-0.619-0.498-1.124-0.611v0c-0.397-0.089-0.793-0.114-1.19-0.075-0.395 0.032-0.751 0.09-1.066 0.175v0c-0.066-0.085-0.118-0.182-0.158-0.289-0.046-0.109-0.058-0.214-0.036-0.315v0c0.057-0.256 0.242-0.419 0.554-0.49v0c0.299-0.074 0.631-0.11 0.998-0.106 0.359 0.003 0.737 0.048 1.134 0.137z" fill="#000000" data-fill-palette-color="primary"></path><path d="M112.415 244.302v0 0c-0.095 0.641-0.401 1.104-0.917 1.389-0.524 0.291-1.229 0.371-2.115 0.24v0c-0.756-0.112-1.356-0.32-1.798-0.623-0.442-0.309-0.642-0.6-0.601-0.873v0c0.018-0.123 0.07-0.237 0.155-0.343 0.079-0.107 0.188-0.185 0.327-0.233v0c0.237 0.23 0.525 0.451 0.863 0.661 0.337 0.217 0.734 0.36 1.19 0.428v0c1.036 0.154 1.606-0.12 1.71-0.822v0c0.043-0.286-0.011-0.534-0.161-0.745-0.15-0.21-0.386-0.381-0.707-0.512v0l-1.188-0.511c-0.584-0.24-0.993-0.538-1.225-0.893-0.234-0.348-0.316-0.757-0.246-1.227v0c0.078-0.525 0.361-0.949 0.847-1.274 0.48-0.326 1.16-0.423 2.039-0.293v0c0.463 0.069 0.865 0.177 1.205 0.326 0.334 0.14 0.585 0.303 0.753 0.488 0.174 0.186 0.248 0.368 0.222 0.545v0c-0.019 0.129-0.071 0.24-0.154 0.332-0.076 0.086-0.171 0.145-0.287 0.177v0c-0.112-0.093-0.252-0.201-0.422-0.324-0.17-0.123-0.373-0.233-0.609-0.331-0.242-0.106-0.513-0.181-0.813-0.225v0c-0.436-0.065-0.8-0.032-1.091 0.099-0.298 0.13-0.47 0.348-0.515 0.654v0c-0.032 0.218 0.018 0.42 0.15 0.608 0.126 0.186 0.353 0.345 0.681 0.477v0l0.995 0.409c0.651 0.257 1.122 0.581 1.412 0.973 0.282 0.397 0.382 0.872 0.3 1.423z" fill="#000000" data-fill-palette-color="primary"></path><path d="M120.411 241.046l-3.15 2.352-0.706-0.647 3.693-3.045c0.24 0.026 0.424 0.096 0.553 0.21 0.122 0.12 0.176 0.263 0.164 0.427v0c-0.011 0.144-0.063 0.268-0.154 0.372-0.098 0.103-0.231 0.213-0.4 0.331zM119.458 246.412l-2.949-3.467 0.883-0.428 3.551 3.733c-0.038 0.218-0.121 0.388-0.248 0.509-0.127 0.121-0.287 0.174-0.479 0.159v0c-0.151-0.012-0.285-0.064-0.402-0.156-0.117-0.092-0.236-0.209-0.356-0.35zM115.223 245.963l0.282-3.564 1.191 0.27-0.302 3.822c-0.05 0.017-0.127 0.035-0.233 0.054-0.098 0.013-0.208 0.015-0.332 0.005v0c-0.213-0.017-0.371-0.071-0.474-0.162-0.103-0.098-0.147-0.24-0.132-0.425zM117.128 237.22l-0.478 6.037-1.192-0.271 0.499-6.304c0.057-0.016 0.137-0.031 0.242-0.043 0.105-0.019 0.22-0.024 0.343-0.015v0c0.213 0.017 0.368 0.071 0.464 0.161 0.096 0.097 0.136 0.242 0.122 0.435z" fill="#000000" data-fill-palette-color="primary"></path><path d="M133.265 241.826v0l0.081 1.734-1.208 0.057-0.077-1.642c-0.023-0.495-0.181-0.85-0.474-1.064-0.3-0.22-0.687-0.32-1.162-0.297v0c-0.31 0.014-0.607 0.08-0.891 0.197-0.291 0.11-0.534 0.235-0.727 0.375v0l0.121 2.581-1.208 0.056-0.118-2.519c-0.009-0.2 0.027-0.374 0.11-0.522 0.076-0.141 0.218-0.283 0.425-0.423v0c0.26-0.185 0.598-0.349 1.012-0.492 0.407-0.143 0.824-0.225 1.251-0.245v0c0.509-0.024 0.964 0.031 1.362 0.164 0.4 0.14 0.702 0.34 0.908 0.599v0c0.065 0.059 0.116 0.112 0.152 0.158 0.044 0.053 0.088 0.117 0.133 0.191v0c0.075 0.121 0.144 0.276 0.208 0.466 0.057 0.184 0.091 0.392 0.102 0.626zM137.684 241.651v0l0.079 1.703-1.207 0.056-0.077-1.641c-0.023-0.495-0.181-0.85-0.474-1.064-0.293-0.221-0.677-0.32-1.152-0.298v0c-0.351 0.016-0.685 0.104-1.001 0.264-0.324 0.16-0.606 0.383-0.848 0.671v0l-0.526-0.855c0.249-0.274 0.579-0.517 0.99-0.729 0.411-0.205 0.888-0.321 1.432-0.346v0c0.544-0.025 1.019 0.039 1.426 0.192 0.4 0.147 0.718 0.391 0.955 0.731 0.243 0.34 0.378 0.779 0.403 1.316zM127.842 246.445l-0.16-3.427 1.208-0.057 0.18 3.861c-0.047 0.023-0.122 0.051-0.224 0.083-0.095 0.025-0.205 0.041-0.328 0.046v0c-0.206 0.01-0.367-0.024-0.481-0.102-0.121-0.084-0.186-0.219-0.195-0.404zM132.26 246.239l-0.16-3.427 1.208-0.057 0.18 3.861c-0.047 0.023-0.125 0.051-0.234 0.083-0.102 0.025-0.208 0.041-0.318 0.046v0c-0.22 0.01-0.387-0.023-0.502-0.101-0.107-0.085-0.165-0.22-0.174-0.405zM136.678 246.032l-0.16-3.427 1.208-0.056 0.18 3.86c-0.054 0.023-0.132 0.051-0.234 0.084-0.102 0.025-0.208 0.041-0.318 0.046v0c-0.227 0.011-0.394-0.023-0.502-0.101-0.107-0.085-0.165-0.22-0.174-0.406z" fill="#000000" data-fill-palette-color="primary"></path><path d="M143.786 244.831v0 0c0.423-0.061 0.765-0.152 1.025-0.274 0.26-0.128 0.442-0.238 0.547-0.33v0l-0.313-2.168-1.823 0.462c-0.505 0.115-0.871 0.286-1.095 0.514-0.219 0.22-0.302 0.51-0.25 0.871v0c0.053 0.368 0.241 0.633 0.564 0.796 0.324 0.169 0.772 0.212 1.345 0.129zM142.863 238.522v0 0c0.866-0.125 1.579-0.03 2.14 0.286 0.568 0.315 0.911 0.888 1.032 1.72v0l0.511 3.538c0.032 0.218 0.011 0.392-0.06 0.52-0.065 0.128-0.176 0.252-0.333 0.372v0c-0.22 0.164-0.52 0.329-0.899 0.496-0.386 0.167-0.829 0.287-1.326 0.359v0c-0.934 0.135-1.683 0.055-2.249-0.239-0.565-0.294-0.897-0.789-0.997-1.485v0c-0.094-0.648 0.05-1.173 0.43-1.576 0.387-0.404 0.957-0.699 1.709-0.884v0l2.088-0.511-0.061-0.419c-0.072-0.498-0.271-0.838-0.596-1.02-0.334-0.188-0.756-0.246-1.268-0.172v0c-0.402 0.058-0.782 0.176-1.139 0.353-0.358 0.17-0.67 0.351-0.934 0.542v0c-0.092-0.056-0.175-0.128-0.251-0.215-0.082-0.086-0.13-0.18-0.145-0.281v0c-0.037-0.259 0.077-0.478 0.344-0.656v0c0.253-0.176 0.551-0.327 0.895-0.453 0.337-0.125 0.706-0.217 1.109-0.275z" fill="#000000" data-fill-palette-color="primary"></path><path d="M154.957 238.724v0l0.334 1.503-1.171 0.26-0.32-1.442c-0.122-0.551-0.367-0.921-0.733-1.108-0.366-0.187-0.811-0.222-1.336-0.106v0c-0.39 0.087-0.725 0.214-1.005 0.383-0.288 0.163-0.526 0.332-0.713 0.507v0l0.567 2.552-1.181 0.262-0.553-2.491c-0.046-0.208-0.04-0.386 0.019-0.534 0.051-0.152 0.166-0.316 0.347-0.49v0c0.223-0.205 0.531-0.421 0.924-0.649 0.389-0.22 0.849-0.39 1.38-0.508v0c0.894-0.199 1.645-0.154 2.253 0.135 0.602 0.297 0.998 0.872 1.188 1.726zM149.962 244.067l-0.744-3.349 1.18-0.262 0.838 3.773c-0.043 0.031-0.111 0.071-0.206 0.12-0.09 0.041-0.195 0.075-0.316 0.102v0c-0.202 0.045-0.365 0.039-0.491-0.018-0.134-0.062-0.221-0.184-0.261-0.366zM154.683 243.019l-0.744-3.349 1.17-0.26 0.838 3.773c-0.043 0.031-0.111 0.071-0.206 0.12-0.103 0.044-0.208 0.078-0.316 0.102v0c-0.215 0.048-0.382 0.043-0.501-0.016-0.12-0.065-0.201-0.188-0.241-0.37z" fill="#000000" data-fill-palette-color="primary"></path><path d="M161.467 240.748v0 0c0.408-0.125 0.732-0.268 0.971-0.429 0.237-0.167 0.4-0.303 0.491-0.41v0l-0.644-2.094-1.73 0.737c-0.482 0.191-0.816 0.417-1.003 0.676-0.182 0.251-0.22 0.55-0.113 0.9v0c0.109 0.356 0.336 0.589 0.68 0.699 0.346 0.117 0.795 0.091 1.348-0.079zM159.584 234.656v0 0c0.836-0.257 1.556-0.273 2.159-0.047 0.609 0.224 1.037 0.737 1.284 1.54v0l1.05 3.418c0.065 0.211 0.072 0.385 0.021 0.523-0.045 0.136-0.135 0.276-0.272 0.419v0c-0.192 0.196-0.463 0.405-0.812 0.628-0.356 0.225-0.775 0.411-1.255 0.559v0c-0.902 0.277-1.655 0.314-2.258 0.11-0.603-0.204-1.008-0.642-1.215-1.313v0c-0.192-0.626-0.132-1.167 0.182-1.624 0.32-0.459 0.838-0.838 1.554-1.136v0l1.984-0.826-0.125-0.405c-0.148-0.481-0.397-0.786-0.746-0.917-0.359-0.135-0.785-0.126-1.279 0.026v0c-0.389 0.119-0.746 0.294-1.071 0.523-0.328 0.223-0.608 0.45-0.84 0.68v0c-0.099-0.042-0.193-0.099-0.28-0.173-0.094-0.072-0.156-0.157-0.187-0.256v0c-0.077-0.25 0.003-0.484 0.239-0.701v0c0.223-0.213 0.494-0.408 0.814-0.585 0.314-0.176 0.665-0.323 1.053-0.443z" fill="#000000" data-fill-palette-color="primary"></path><path d="M170.252 238.22v0 0c-0.545 0.214-1.087 0.304-1.625 0.271-0.545-0.03-1.053-0.231-1.524-0.6-0.468-0.364-0.857-0.94-1.167-1.729v0c-0.279-0.712-0.374-1.359-0.285-1.942 0.096-0.585 0.337-1.094 0.722-1.527 0.392-0.435 0.902-0.776 1.53-1.022v0c0.43-0.169 0.844-0.272 1.244-0.311 0.408-0.034 0.766-0.019 1.072 0.046v0c0.179 0.041 0.333 0.103 0.461 0.185 0.135 0.08 0.235 0.204 0.301 0.37v0l1.703 4.338-1.125 0.442-1.696-4.319c-0.194-0.042-0.429-0.057-0.705-0.045-0.267 0.016-0.565 0.088-0.892 0.217v0c-0.628 0.247-1.056 0.637-1.284 1.17-0.234 0.536-0.202 1.182 0.095 1.939v0c0.33 0.84 0.757 1.364 1.283 1.572 0.53 0.199 1.08 0.187 1.651-0.037v0c0.41-0.161 0.713-0.361 0.907-0.601 0.201-0.242 0.343-0.475 0.425-0.699v0l0.451 0.977c-0.083 0.203-0.25 0.428-0.502 0.674-0.257 0.249-0.604 0.459-1.04 0.631zM172.046 237.982v0l-0.578-1.472 1.125-0.441 0.605 1.539c0.244 0.622 0.308 1.171 0.19 1.645-0.123 0.478-0.382 0.894-0.775 1.248-0.396 0.348-0.886 0.636-1.47 0.866v0c-0.468 0.184-0.889 0.29-1.263 0.318-0.38 0.031-0.644 0.038-0.791 0.022v0c-0.345-0.05-0.565-0.196-0.661-0.44v0c-0.053-0.135-0.065-0.259-0.036-0.375 0.025-0.106 0.076-0.204 0.152-0.292v0c0.253 0.078 0.586 0.107 0.999 0.085 0.409-0.013 0.819-0.1 1.23-0.261v0c0.628-0.247 1.057-0.57 1.284-0.97 0.219-0.404 0.215-0.895-0.011-1.472z" fill="#000000" data-fill-palette-color="primary"></path><path d="M179.688 230.374l-4.242 2.852-0.473-0.827 3.824-2.556c-0.279-0.477-0.652-0.801-1.119-0.972-0.457-0.168-0.959-0.119-1.503 0.147v0c-0.557 0.272-0.923 0.7-1.099 1.284-0.172 0.574-0.074 1.239 0.295 1.994v0l0.145 0.298c0.419 0.685 0.924 1.117 1.518 1.294 0.593 0.178 1.248 0.092 1.966-0.258v0c0.378-0.184 0.69-0.417 0.936-0.698 0.243-0.272 0.418-0.526 0.525-0.762v0c0.138 0.017 0.257 0.055 0.355 0.114 0.095 0.053 0.17 0.136 0.224 0.247v0c0.085 0.173 0.067 0.381-0.052 0.624-0.119 0.242-0.319 0.485-0.599 0.729-0.277 0.25-0.613 0.472-1.009 0.665v0c-0.7 0.341-1.365 0.509-1.997 0.503-0.632-0.006-1.209-0.192-1.732-0.558-0.517-0.369-0.952-0.915-1.306-1.639v0c-0.251-0.514-0.4-1.008-0.448-1.483-0.048-0.475-0.007-0.917 0.124-1.325 0.13-0.409 0.345-0.778 0.643-1.108 0.293-0.327 0.659-0.598 1.099-0.812v0c0.551-0.269 1.091-0.387 1.621-0.354 0.536 0.03 1.026 0.193 1.469 0.49 0.447 0.303 0.803 0.727 1.07 1.272v0c0.097 0.198 0.12 0.363 0.069 0.495-0.051 0.132-0.152 0.247-0.304 0.344z" fill="#000000" data-fill-palette-color="primary"></path><path d="M186.64 224.635v0l0.902 1.484-1.034 0.627-0.853-1.404c-0.258-0.424-0.566-0.66-0.925-0.707-0.369-0.05-0.756 0.048-1.163 0.295v0c-0.265 0.161-0.494 0.361-0.688 0.599-0.203 0.236-0.356 0.462-0.459 0.678v0l1.342 2.208-1.034 0.628-1.309-2.155c-0.104-0.171-0.155-0.341-0.153-0.512-0.001-0.161 0.056-0.352 0.17-0.575v0c0.14-0.287 0.358-0.592 0.653-0.916 0.289-0.321 0.616-0.592 0.981-0.814v0c0.436-0.265 0.861-0.434 1.275-0.508 0.418-0.068 0.779-0.038 1.083 0.092v0c0.085 0.021 0.155 0.043 0.21 0.066 0.064 0.026 0.133 0.06 0.208 0.103v0c0.123 0.07 0.259 0.173 0.405 0.31 0.138 0.134 0.267 0.301 0.389 0.501zM190.436 222.365v0l0.886 1.458-1.034 0.627-0.853-1.404c-0.258-0.424-0.566-0.66-0.925-0.707-0.363-0.054-0.748 0.043-1.154 0.29v0c-0.3 0.182-0.551 0.419-0.753 0.711-0.208 0.295-0.349 0.627-0.423 0.995v0l-0.871-0.499c0.088-0.36 0.261-0.731 0.52-1.114 0.263-0.377 0.626-0.707 1.092-0.99v0c0.465-0.283 0.913-0.454 1.344-0.514 0.421-0.063 0.818-0.001 1.188 0.185 0.377 0.182 0.705 0.503 0.983 0.962zM184.091 231.286l-1.781-2.932 1.033-0.628 2.007 3.303c-0.03 0.043-0.083 0.103-0.157 0.18-0.072 0.068-0.161 0.134-0.267 0.198v0c-0.177 0.107-0.334 0.154-0.47 0.141-0.147-0.016-0.268-0.103-0.365-0.262zM187.871 228.99l-1.781-2.932 1.033-0.628 2.007 3.303c-0.03 0.043-0.086 0.104-0.166 0.185-0.078 0.071-0.163 0.136-0.258 0.193v0c-0.188 0.114-0.351 0.165-0.488 0.152-0.135-0.023-0.251-0.114-0.347-0.273zM191.651 226.694l-1.781-2.933 1.033-0.627 2.007 3.303c-0.036 0.046-0.092 0.108-0.166 0.185-0.078 0.071-0.163 0.136-0.258 0.193v0c-0.194 0.118-0.357 0.169-0.488 0.151-0.135-0.023-0.251-0.114-0.347-0.272z" fill="#000000" data-fill-palette-color="primary"></path><path d="M198.14 218.303l-3.621 3.608-0.622-0.722 3.267-3.238c-0.365-0.415-0.792-0.662-1.283-0.741-0.481-0.077-0.964 0.066-1.448 0.431v0c-0.495 0.373-0.773 0.863-0.834 1.469-0.059 0.597 0.164 1.231 0.67 1.902v0l0.199 0.264c0.541 0.593 1.12 0.92 1.736 0.982 0.616 0.062 1.243-0.147 1.882-0.628v0c0.336-0.253 0.597-0.541 0.785-0.863 0.187-0.313 0.31-0.596 0.37-0.848v0c0.139-0.01 0.262 0.005 0.37 0.044 0.103 0.034 0.192 0.101 0.267 0.2v0c0.116 0.154 0.139 0.361 0.068 0.622-0.071 0.261-0.221 0.537-0.449 0.83-0.224 0.298-0.512 0.58-0.864 0.845v0c-0.622 0.468-1.243 0.76-1.864 0.874-0.621 0.114-1.223 0.042-1.807-0.217-0.578-0.263-1.109-0.717-1.594-1.361v0c-0.344-0.457-0.585-0.914-0.723-1.37-0.137-0.457-0.181-0.899-0.131-1.325 0.05-0.426 0.19-0.829 0.421-1.21 0.225-0.377 0.533-0.712 0.924-1.006v0c0.49-0.369 0.998-0.588 1.524-0.657 0.532-0.073 1.044-0.006 1.536 0.202 0.496 0.212 0.927 0.561 1.292 1.045v0c0.133 0.176 0.187 0.334 0.162 0.472-0.024 0.139-0.102 0.271-0.233 0.396z" fill="#000000" data-fill-palette-color="primary"></path><path d="M204.418 211.321v0l1.015 1.157-0.901 0.791-0.974-1.11c-0.373-0.425-0.764-0.631-1.176-0.619-0.411 0.012-0.818 0.196-1.222 0.55v0c-0.3 0.264-0.533 0.536-0.697 0.819-0.175 0.282-0.301 0.544-0.381 0.788v0l1.725 1.965-0.909 0.797-1.684-1.918c-0.141-0.161-0.221-0.319-0.24-0.477-0.029-0.158-0.006-0.357 0.068-0.596v0c0.097-0.287 0.263-0.625 0.498-1.014 0.235-0.38 0.556-0.75 0.966-1.109v0c0.689-0.604 1.369-0.926 2.04-0.966 0.671-0.03 1.295 0.284 1.872 0.942zM202.609 218.409l-2.263-2.579 0.908-0.797 2.55 2.904c-0.023 0.047-0.064 0.115-0.123 0.205-0.059 0.079-0.135 0.16-0.228 0.241v0c-0.155 0.136-0.302 0.21-0.439 0.22-0.147 0.01-0.282-0.055-0.405-0.194zM206.244 215.218l-2.264-2.578 0.901-0.791 2.55 2.905c-0.023 0.047-0.064 0.115-0.123 0.204-0.069 0.088-0.145 0.169-0.228 0.242v0c-0.166 0.145-0.315 0.221-0.447 0.227-0.137 0.001-0.266-0.069-0.389-0.209z" fill="#000000" data-fill-palette-color="primary"></path><path d="M208.626 211.025l-1.529-1.51 0.849-0.861 1.478 1.46c0.284 0.281 0.568 0.401 0.85 0.36 0.282-0.05 0.564-0.218 0.844-0.502v0c0.121-0.123 0.235-0.282 0.341-0.477 0.101-0.191 0.173-0.366 0.216-0.527v0c0.088-0.001 0.18 0.014 0.278 0.042 0.098 0.029 0.191 0.087 0.278 0.173v0c0.157 0.155 0.195 0.376 0.114 0.665-0.086 0.283-0.291 0.589-0.615 0.917v0c-0.494 0.5-1.006 0.798-1.537 0.893-0.53 0.086-1.053-0.125-1.567-0.633zM208.148 205.833l-1.924 1.948-0.714-0.704 2.15-2.177c0.049 0.009 0.117 0.033 0.205 0.072 0.083 0.043 0.161 0.101 0.235 0.174v0c0.113 0.111 0.174 0.225 0.185 0.342 0.011 0.127-0.035 0.241-0.137 0.345zM204.689 205.438l3.573 3.529-0.849 0.86-3.882-3.834c0.019-0.049 0.06-0.12 0.123-0.213 0.053-0.093 0.121-0.181 0.203-0.264v0c0.15-0.152 0.291-0.236 0.422-0.251 0.141-0.015 0.278 0.042 0.41 0.173z" fill="#000000" data-fill-palette-color="primary"></path><path d="M218.9 199.284v0 0c0.503 0.408 0.747 0.906 0.73 1.495-0.015 0.599-0.305 1.247-0.868 1.943v0c-0.481 0.594-0.965 1.005-1.451 1.232-0.491 0.223-0.843 0.248-1.057 0.075v0c-0.096-0.078-0.168-0.181-0.216-0.308-0.052-0.122-0.064-0.255-0.035-0.401v0c0.319-0.087 0.655-0.223 1.008-0.407 0.358-0.18 0.683-0.449 0.973-0.807v0c0.659-0.814 0.713-1.444 0.162-1.891v0c-0.225-0.182-0.466-0.262-0.723-0.24-0.257 0.022-0.524 0.138-0.801 0.349v0l-1.044 0.763c-0.504 0.381-0.968 0.582-1.392 0.602-0.419 0.024-0.813-0.113-1.182-0.412v0c-0.412-0.334-0.634-0.793-0.666-1.378-0.036-0.579 0.225-1.214 0.784-1.904v0c0.295-0.364 0.592-0.655 0.893-0.873 0.291-0.217 0.558-0.35 0.803-0.4 0.249-0.056 0.443-0.027 0.582 0.086v0c0.102 0.082 0.171 0.183 0.208 0.301 0.036 0.109 0.038 0.221 0.006 0.338v0c-0.137 0.049-0.301 0.115-0.493 0.198-0.192 0.084-0.39 0.203-0.595 0.357-0.214 0.155-0.416 0.35-0.607 0.585v0c-0.278 0.343-0.434 0.673-0.469 0.99-0.04 0.323 0.061 0.581 0.302 0.776v0c0.171 0.139 0.371 0.199 0.599 0.18 0.224-0.014 0.476-0.128 0.758-0.344v0l0.857-0.649c0.552-0.43 1.071-0.671 1.555-0.721 0.485-0.041 0.945 0.114 1.379 0.465z" fill="#000000" data-fill-palette-color="primary"></path><path d="M221.668 195.935v0 0c-0.364-0.044-0.841-0.125-1.431-0.242-0.584-0.114-1.229-0.261-1.934-0.443-0.703-0.172-1.408-0.365-2.115-0.58v0c-0.045-0.116-0.06-0.239-0.043-0.371 0.022-0.128 0.07-0.245 0.145-0.353v0c0.095-0.136 0.21-0.223 0.346-0.262 0.137-0.039 0.311-0.031 0.524 0.026v0c0.864 0.242 1.735 0.463 2.612 0.663 0.873 0.206 1.791 0.401 2.754 0.586v0l0.036-0.051c-0.222-0.416-0.529-0.898-0.919-1.447-0.386-0.555-0.808-1.118-1.265-1.69-0.454-0.577-0.897-1.104-1.329-1.582v0c0.017-0.072 0.038-0.15 0.063-0.233 0.034-0.085 0.079-0.167 0.134-0.247v0c0.099-0.141 0.213-0.233 0.344-0.276 0.131-0.043 0.267-0.015 0.408 0.083v0c0.136 0.095 0.33 0.285 0.584 0.571 0.26 0.29 0.547 0.642 0.864 1.056 0.32 0.408 0.65 0.857 0.989 1.345 0.339 0.489 0.663 0.988 0.972 1.497 0.307 0.5 0.566 0.97 0.778 1.413v0c0.436 0.867 0.736 1.588 0.898 2.163 0.152 0.577 0.136 0.998-0.05 1.263v0c-0.13 0.186-0.279 0.297-0.446 0.332-0.177 0.036-0.338 0.021-0.483-0.048v0c-0.032-0.291-0.099-0.64-0.202-1.047-0.102-0.407-0.228-0.823-0.377-1.247-0.154-0.418-0.321-0.787-0.502-1.105v0c-0.144 0.11-0.311 0.186-0.5 0.23-0.19 0.044-0.475 0.043-0.855-0.004z" fill="#000000" data-fill-palette-color="primary"></path><path d="M227.842 185.699v0 0c0.555 0.334 0.865 0.793 0.931 1.38 0.068 0.596-0.129 1.277-0.59 2.044v0c-0.394 0.655-0.816 1.129-1.265 1.422-0.455 0.289-0.801 0.363-1.037 0.221v0c-0.106-0.064-0.192-0.156-0.257-0.275-0.068-0.113-0.098-0.244-0.09-0.392v0c0.304-0.131 0.618-0.312 0.942-0.543 0.33-0.228 0.614-0.539 0.851-0.935v0c0.539-0.897 0.505-1.529-0.103-1.895v0c-0.248-0.149-0.498-0.195-0.749-0.137-0.252 0.058-0.5 0.21-0.745 0.457v0l-0.928 0.901c-0.446 0.447-0.877 0.711-1.294 0.789-0.411 0.082-0.821 0.001-1.228-0.243v0c-0.455-0.273-0.738-0.697-0.851-1.272-0.116-0.568 0.054-1.233 0.512-1.995v0c0.241-0.401 0.496-0.731 0.763-0.988 0.258-0.255 0.504-0.424 0.739-0.508 0.239-0.09 0.435-0.088 0.588 0.004v0c0.112 0.067 0.195 0.157 0.248 0.27 0.051 0.103 0.068 0.214 0.053 0.333v0c-0.129 0.067-0.282 0.156-0.461 0.265-0.178 0.11-0.358 0.255-0.539 0.436-0.19 0.183-0.364 0.404-0.52 0.664v0c-0.227 0.378-0.336 0.726-0.327 1.045 0.006 0.325 0.141 0.567 0.407 0.727v0c0.189 0.114 0.395 0.145 0.619 0.095 0.22-0.045 0.454-0.193 0.702-0.446v0l0.759-0.762c0.487-0.503 0.967-0.813 1.44-0.931 0.475-0.108 0.952-0.019 1.43 0.269z" fill="#000000" data-fill-palette-color="primary"></path><path d="M229.235 183.148l-1.906-0.994 0.56-1.072 1.841 0.961c0.354 0.185 0.66 0.216 0.918 0.094 0.255-0.131 0.475-0.374 0.66-0.728v0c0.08-0.153 0.141-0.338 0.185-0.556 0.041-0.212 0.058-0.401 0.051-0.568v0c0.084-0.026 0.176-0.04 0.278-0.041 0.102-0.001 0.208 0.027 0.318 0.084v0c0.195 0.102 0.297 0.302 0.304 0.601 0.001 0.296-0.105 0.648-0.319 1.058v0c-0.325 0.623-0.727 1.058-1.205 1.306-0.482 0.238-1.043 0.19-1.685-0.145zM227.252 178.326l-1.267 2.428-0.888-0.464 1.414-2.712c0.049-0.005 0.122-0.003 0.218 0.008 0.092 0.017 0.184 0.049 0.275 0.098v0c0.14 0.073 0.233 0.164 0.277 0.272 0.047 0.118 0.037 0.241-0.029 0.37zM223.83 178.965l4.453 2.323-0.56 1.072-4.837-2.524c0.004-0.052 0.022-0.132 0.055-0.239 0.023-0.104 0.062-0.208 0.116-0.313v0c0.099-0.189 0.209-0.311 0.33-0.364 0.13-0.056 0.278-0.041 0.443 0.045z" fill="#000000" data-fill-palette-color="primary"></path><path d="M232.925 171.482l-1.385 4.921-0.896-0.324 1.258-4.424c-0.521-0.183-1.015-0.188-1.481-0.016-0.457 0.169-0.807 0.53-1.05 1.085v0c-0.248 0.568-0.25 1.131-0.006 1.69 0.241 0.549 0.747 0.992 1.517 1.328v0l0.303 0.133c0.763 0.251 1.427 0.252 1.994 0.004 0.567-0.248 1.011-0.738 1.331-1.471v0c0.168-0.385 0.255-0.764 0.261-1.138 0.009-0.364-0.022-0.671-0.093-0.92v0c0.116-0.077 0.231-0.124 0.344-0.143 0.107-0.021 0.217-0.007 0.331 0.043v0c0.177 0.077 0.298 0.247 0.364 0.509 0.066 0.262 0.071 0.576 0.016 0.943-0.049 0.37-0.162 0.756-0.339 1.161v0c-0.312 0.713-0.71 1.272-1.195 1.676-0.485 0.404-1.045 0.637-1.681 0.697-0.633 0.054-1.318-0.08-2.057-0.403v0c-0.524-0.229-0.958-0.509-1.302-0.84-0.344-0.331-0.599-0.694-0.764-1.09-0.165-0.396-0.241-0.816-0.227-1.261 0.011-0.439 0.115-0.882 0.312-1.33v0c0.246-0.562 0.581-1.002 1.005-1.32 0.428-0.324 0.907-0.517 1.437-0.578 0.537-0.058 1.083 0.034 1.639 0.277v0c0.202 0.088 0.326 0.199 0.373 0.332 0.047 0.133 0.044 0.286-0.009 0.459z" fill="#000000" data-fill-palette-color="primary"></path><path d="M234.504 162.606v0l1.648 0.547-0.381 1.147-1.559-0.517c-0.471-0.156-0.859-0.136-1.164 0.061-0.313 0.201-0.545 0.527-0.694 0.978v0c-0.098 0.294-0.143 0.595-0.136 0.902-0.002 0.312 0.028 0.583 0.09 0.814v0l2.452 0.813-0.381 1.147-2.393-0.793c-0.19-0.063-0.339-0.16-0.448-0.29-0.105-0.122-0.186-0.305-0.243-0.549v0c-0.079-0.309-0.111-0.683-0.096-1.121 0.012-0.431 0.086-0.85 0.22-1.255v0c0.16-0.484 0.374-0.888 0.642-1.213 0.274-0.323 0.569-0.534 0.884-0.632v0c0.078-0.039 0.146-0.068 0.203-0.086 0.065-0.022 0.14-0.041 0.225-0.056v0c0.139-0.026 0.309-0.035 0.51-0.026 0.192 0.013 0.399 0.056 0.621 0.129zM235.925 158.418v0l1.619 0.537-0.381 1.147-1.559-0.517c-0.471-0.156-0.859-0.136-1.164 0.061-0.311 0.194-0.542 0.517-0.691 0.968v0c-0.111 0.333-0.148 0.677-0.113 1.03 0.033 0.359 0.141 0.703 0.322 1.032v0l-0.986 0.184c-0.166-0.331-0.275-0.726-0.326-1.185-0.044-0.457 0.019-0.944 0.191-1.461v0c0.171-0.517 0.402-0.937 0.691-1.263 0.281-0.321 0.622-0.53 1.025-0.629 0.405-0.105 0.863-0.073 1.372 0.096zM236.871 169.324l-3.257-1.079 0.381-1.148 3.668 1.216c0.004 0.052 0.003 0.132-0.003 0.239-0.011 0.098-0.036 0.206-0.075 0.323v0c-0.065 0.196-0.154 0.334-0.267 0.413-0.122 0.083-0.271 0.095-0.447 0.036zM238.262 165.126l-3.256-1.079 0.381-1.148 3.668 1.216c0.004 0.052 0.002 0.135-0.006 0.249-0.013 0.105-0.037 0.209-0.072 0.313v0c-0.069 0.209-0.161 0.353-0.273 0.432-0.118 0.07-0.265 0.076-0.442 0.017zM239.654 160.928l-3.256-1.079 0.381-1.148 3.668 1.216c0.002 0.059 0 0.142-0.006 0.249-0.013 0.105-0.037 0.209-0.072 0.313v0c-0.072 0.216-0.163 0.36-0.273 0.432-0.118 0.07-0.265 0.076-0.442 0.017z" fill="#000000" data-fill-palette-color="primary"></path></g></svg></g></svg></g></svg></g></svg></g></svg></g><defs></defs></svg><rect width="246.95280000000002" height="246.95280000000002" fill="none" stroke="none" visibility="hidden"></rect></g></svg></g></svg>