<svg xmlns="http://www.w3.org/2000/svg" xmlns:xlink="http://www.w3.org/1999/xlink" width="500" zoomAndPan="magnify" viewBox="0 0 375 374.999991" height="500" preserveAspectRatio="xMidYMid meet" version="1.0"><defs><g/></defs><rect x="-37.5" width="450" fill="#ffffff" y="-37.499999" height="449.999989" fill-opacity="1"/><rect x="-37.5" width="450" fill="#e4e2dd" y="-37.499999" height="449.999989" fill-opacity="1"/><g fill="#292929" fill-opacity="1"><g transform="translate(80.237449, 203.934059)"><g><path d="M 34.890625 0 L 28.21875 0 L 28.21875 -20.84375 C 28.21875 -22.144531 28.15625 -23.59375 28.03125 -25.1875 C 27.914062 -26.78125 27.617188 -28.273438 27.140625 -29.671875 C 26.660156 -31.066406 25.925781 -32.234375 24.9375 -33.171875 C 23.945312 -34.117188 22.582031 -34.59375 20.84375 -34.59375 C 19.101562 -34.59375 17.59375 -34.335938 16.3125 -33.828125 C 15.039062 -33.328125 14.019531 -32.738281 13.25 -32.0625 C 12.476562 -31.382812 11.96875 -30.707031 11.71875 -30.03125 C 11.476562 -29.351562 11.53125 -28.820312 11.875 -28.4375 C 12.0625 -28.195312 12.382812 -28.015625 12.84375 -27.890625 C 13.300781 -27.773438 13.816406 -27.671875 14.390625 -27.578125 C 14.972656 -27.484375 15.585938 -27.382812 16.234375 -27.28125 C 16.890625 -27.1875 17.507812 -27.019531 18.09375 -26.78125 C 19.6875 -26.15625 20.953125 -25.15625 21.890625 -23.78125 C 22.835938 -22.40625 23.503906 -20.867188 23.890625 -19.171875 C 24.273438 -17.484375 24.414062 -15.75 24.3125 -13.96875 C 24.21875 -12.1875 23.882812 -10.617188 23.3125 -9.265625 C 22.195312 -6.460938 20.550781 -4.144531 18.375 -2.3125 C 16.207031 -0.476562 13.847656 0.390625 11.296875 0.296875 C 8.878906 0.191406 6.921875 -0.472656 5.421875 -1.703125 C 3.929688 -2.929688 2.90625 -4.445312 2.34375 -6.25 C 1.789062 -8.0625 1.734375 -10.015625 2.171875 -12.109375 C 2.609375 -14.210938 3.535156 -16.171875 4.953125 -17.984375 C 6.378906 -19.796875 8.332031 -21.328125 10.8125 -22.578125 C 13.300781 -23.835938 16.332031 -24.539062 19.90625 -24.6875 C 20 -24.726562 20.164062 -24.75 20.40625 -24.75 C 19.6875 -25.375 18.84375 -25.878906 17.875 -26.265625 C 17.007812 -26.609375 16.066406 -26.828125 15.046875 -26.921875 C 14.035156 -27.015625 13.082031 -27.035156 12.1875 -26.984375 C 11.300781 -26.941406 10.503906 -26.875 9.796875 -26.78125 C 9.097656 -26.6875 8.65625 -26.613281 8.46875 -26.5625 C 8.320312 -27.28125 8.523438 -28.132812 9.078125 -29.125 C 9.640625 -30.113281 10.460938 -31.054688 11.546875 -31.953125 C 12.628906 -32.847656 13.953125 -33.597656 15.515625 -34.203125 C 17.085938 -34.804688 18.863281 -35.109375 20.84375 -35.109375 C 23.15625 -35.109375 25.109375 -34.742188 26.703125 -34.015625 C 28.296875 -33.296875 29.570312 -32.304688 30.53125 -31.046875 C 31.5 -29.796875 32.1875 -28.289062 32.59375 -26.53125 C 33.007812 -24.769531 33.21875 -22.875 33.21875 -20.84375 L 33.21875 -6.21875 C 33.21875 -5.019531 33.273438 -4.054688 33.390625 -3.328125 C 33.515625 -2.609375 33.671875 -2.039062 33.859375 -1.625 C 34.054688 -1.21875 34.25 -0.953125 34.4375 -0.828125 C 34.632812 -0.710938 34.785156 -0.65625 34.890625 -0.65625 Z M 20.921875 -24.171875 C 18.984375 -24.171875 17.15625 -23.925781 15.4375 -23.4375 C 13.726562 -22.957031 12.234375 -22.210938 10.953125 -21.203125 C 9.679688 -20.191406 8.671875 -18.910156 7.921875 -17.359375 C 7.171875 -15.816406 6.796875 -14.007812 6.796875 -11.9375 C 6.796875 -10.925781 6.90625 -9.910156 7.125 -8.890625 C 7.34375 -7.878906 7.703125 -6.941406 8.203125 -6.078125 C 8.710938 -5.210938 9.351562 -4.460938 10.125 -3.828125 C 10.90625 -3.203125 11.847656 -2.796875 12.953125 -2.609375 C 14.109375 -2.367188 15.191406 -2.414062 16.203125 -2.75 C 17.222656 -3.082031 18.164062 -3.578125 19.03125 -4.234375 C 19.90625 -4.890625 20.664062 -5.675781 21.3125 -6.59375 C 21.96875 -7.507812 22.488281 -8.445312 22.875 -9.40625 C 23.300781 -10.5625 23.597656 -11.800781 23.765625 -13.125 C 23.941406 -14.457031 23.957031 -15.785156 23.8125 -17.109375 C 23.664062 -18.441406 23.347656 -19.707031 22.859375 -20.90625 C 22.378906 -22.113281 21.734375 -23.203125 20.921875 -24.171875 Z M 20.921875 -24.171875 "/></g></g></g><g fill="#292929" fill-opacity="1"><g transform="translate(115.695088, 203.934059)"><g><path d="M 26.84375 -21.859375 C 26.84375 -22.867188 26.566406 -23.960938 26.015625 -25.140625 C 25.460938 -26.328125 24.703125 -27.488281 23.734375 -28.625 C 22.773438 -29.757812 21.675781 -30.769531 20.4375 -31.65625 C 19.207031 -32.550781 17.929688 -33.203125 16.609375 -33.609375 C 15.285156 -34.023438 13.957031 -34.125 12.625 -33.90625 C 11.300781 -33.6875 10.109375 -33.023438 9.046875 -31.921875 C 8.035156 -30.898438 7.550781 -29.703125 7.59375 -28.328125 C 7.644531 -26.953125 8.226562 -25.710938 9.34375 -24.609375 C 10.15625 -23.785156 11.367188 -22.960938 12.984375 -22.140625 C 14.609375 -21.328125 16.742188 -20.582031 19.390625 -19.90625 C 21.367188 -19.375 23.035156 -18.742188 24.390625 -18.015625 C 25.742188 -17.296875 26.851562 -16.523438 27.71875 -15.703125 C 29.113281 -14.304688 29.929688 -12.738281 30.171875 -11 C 30.421875 -9.257812 30.0625 -7.523438 29.09375 -5.796875 C 28.613281 -4.972656 28.046875 -4.207031 27.390625 -3.5 C 26.742188 -2.800781 26.035156 -2.238281 25.265625 -1.8125 C 24.484375 -1.28125 23.625 -0.832031 22.6875 -0.46875 C 21.75 -0.101562 20.769531 0.179688 19.75 0.390625 C 18.738281 0.609375 17.726562 0.753906 16.71875 0.828125 C 15.707031 0.898438 14.742188 0.914062 13.828125 0.875 C 12.085938 0.726562 10.265625 0.351562 8.359375 -0.25 C 6.453125 -0.851562 4.460938 -1.785156 2.390625 -3.046875 L 1.8125 -3.40625 L 3.546875 -11.4375 L 4.125 -11.296875 C 4.03125 -10.859375 4.125 -10.300781 4.40625 -9.625 C 4.695312 -8.945312 5.0625 -8.242188 5.5 -7.515625 C 5.9375 -6.796875 6.394531 -6.132812 6.875 -5.53125 C 7.351562 -4.925781 7.765625 -4.484375 8.109375 -4.203125 C 9.066406 -3.234375 10.125 -2.46875 11.28125 -1.90625 C 12.445312 -1.351562 13.65625 -0.957031 14.90625 -0.71875 C 16.113281 -0.476562 17.304688 -0.378906 18.484375 -0.421875 C 19.671875 -0.472656 20.796875 -0.644531 21.859375 -0.9375 C 22.429688 -1.082031 22.957031 -1.265625 23.4375 -1.484375 C 23.925781 -1.703125 24.4375 -1.957031 24.96875 -2.25 C 25.445312 -2.582031 25.878906 -2.941406 26.265625 -3.328125 C 26.609375 -3.710938 26.910156 -4.125 27.171875 -4.5625 C 27.441406 -5 27.625 -5.457031 27.71875 -5.9375 C 27.8125 -6.707031 27.765625 -7.40625 27.578125 -8.03125 C 27.234375 -8.945312 26.664062 -9.726562 25.875 -10.375 C 25.082031 -11.03125 24.15625 -11.585938 23.09375 -12.046875 C 22.03125 -12.503906 20.878906 -12.898438 19.640625 -13.234375 C 18.410156 -13.578125 17.195312 -13.941406 16 -14.328125 C 13.675781 -15.003906 11.632812 -15.96875 9.875 -17.21875 C 8.113281 -18.476562 6.832031 -19.914062 6.03125 -21.53125 C 5.238281 -23.144531 5 -24.867188 5.3125 -26.703125 C 5.632812 -28.535156 6.734375 -30.394531 8.609375 -32.28125 C 9.867188 -33.582031 11.519531 -34.390625 13.5625 -34.703125 C 15.613281 -35.015625 17.6875 -35.015625 19.78125 -34.703125 C 21.882812 -34.390625 23.789062 -33.8125 25.5 -32.96875 C 27.21875 -32.125 28.390625 -31.171875 29.015625 -30.109375 L 27.21875 -21.859375 Z M 26.84375 -21.859375 "/></g></g></g><g fill="#292929" fill-opacity="1"><g transform="translate(146.593855, 203.934059)"><g><path d="M 8.609375 -52.25 L 8.609375 -15.5625 L 16.640625 -22.65625 L 25.90625 -30.828125 C 26.875 -31.703125 27.515625 -32.488281 27.828125 -33.1875 C 28.140625 -33.882812 27.742188 -34.234375 26.640625 -34.234375 L 26.640625 -34.890625 L 33.4375 -34.890625 L 33.4375 -34.234375 C 32.71875 -34.234375 31.929688 -34.039062 31.078125 -33.65625 C 30.234375 -33.269531 29.460938 -32.847656 28.765625 -32.390625 C 28.066406 -31.929688 27.460938 -31.484375 26.953125 -31.046875 C 26.453125 -30.609375 26.15625 -30.34375 26.0625 -30.25 L 19.109375 -24.09375 L 27.359375 -10.125 L 30.109375 -5.5 C 30.972656 -4 31.742188 -2.816406 32.421875 -1.953125 C 33.097656 -1.085938 33.628906 -0.65625 34.015625 -0.65625 L 34.015625 0 L 25.46875 0 L 25.46875 -0.65625 C 25.8125 -0.65625 25.726562 -1.390625 25.21875 -2.859375 C 24.71875 -4.328125 23.789062 -6.222656 22.4375 -8.546875 L 15.265625 -20.703125 L 8.609375 -14.84375 L 8.609375 -6.21875 C 8.609375 -5.019531 8.664062 -4.054688 8.78125 -3.328125 C 8.90625 -2.609375 9.0625 -2.039062 9.25 -1.625 C 9.445312 -1.21875 9.640625 -0.953125 9.828125 -0.828125 C 10.023438 -0.710938 10.175781 -0.65625 10.28125 -0.65625 L 10.28125 0 L 1.953125 0 L 1.953125 -0.65625 C 2.046875 -0.65625 2.1875 -0.710938 2.375 -0.828125 C 2.570312 -0.953125 2.753906 -1.21875 2.921875 -1.625 C 3.097656 -2.039062 3.257812 -2.609375 3.40625 -3.328125 C 3.550781 -4.054688 3.625 -5.019531 3.625 -6.21875 L 3.625 -46.03125 C 3.425781 -47.28125 3.15625 -48.097656 2.8125 -48.484375 C 2.476562 -48.867188 2.238281 -49.0625 2.09375 -49.0625 L 1.8125 -49.71875 Z M 8.609375 -52.25 "/></g></g></g><g fill="#292929" fill-opacity="1"><g transform="translate(181.183139, 203.934059)"><g><path d="M 10.71875 0 L 2.171875 0 L 2.171875 -0.65625 C 2.265625 -0.65625 2.40625 -0.722656 2.59375 -0.859375 C 2.789062 -1.003906 2.972656 -1.269531 3.140625 -1.65625 C 3.316406 -2.050781 3.472656 -2.617188 3.609375 -3.359375 C 3.753906 -4.109375 3.828125 -5.0625 3.828125 -6.21875 L 3.828125 -44.578125 C 3.828125 -45.785156 3.753906 -46.75 3.609375 -47.46875 C 3.472656 -48.195312 3.316406 -48.753906 3.140625 -49.140625 C 2.972656 -49.523438 2.789062 -49.789062 2.59375 -49.9375 C 2.40625 -50.082031 2.265625 -50.15625 2.171875 -50.15625 L 2.171875 -50.8125 L 33.578125 -50.8125 L 33.578125 -44.65625 L 32.9375 -44.65625 C 31.820312 -45.332031 30.722656 -45.957031 29.640625 -46.53125 C 28.554688 -47.113281 27.394531 -47.644531 26.15625 -48.125 C 24.925781 -48.613281 23.578125 -49.023438 22.109375 -49.359375 C 20.640625 -49.691406 19.007812 -49.957031 17.21875 -50.15625 L 9.046875 -50.15625 L 9.046875 -28.875 C 11.890625 -28.875 14.191406 -29.019531 15.953125 -29.3125 C 17.710938 -29.601562 19.125 -29.914062 20.1875 -30.25 C 21.394531 -30.632812 22.3125 -31.09375 22.9375 -31.625 L 23.59375 -31.625 L 23.59375 -25.46875 L 22.9375 -25.46875 C 22.3125 -25.957031 21.394531 -26.414062 20.1875 -26.84375 C 19.125 -27.1875 17.710938 -27.5 15.953125 -27.78125 C 14.191406 -28.070312 11.890625 -28.21875 9.046875 -28.21875 L 9.046875 -6.21875 C 9.046875 -5.0625 9.101562 -4.109375 9.21875 -3.359375 C 9.34375 -2.617188 9.5 -2.050781 9.6875 -1.65625 C 9.882812 -1.269531 10.078125 -1.003906 10.265625 -0.859375 C 10.460938 -0.722656 10.613281 -0.65625 10.71875 -0.65625 Z M 10.71875 0 "/></g></g></g><g fill="#292929" fill-opacity="1"><g transform="translate(215.700056, 203.934059)"><g><path d="M 10.28125 0 L 1.875 0 L 1.875 -0.65625 C 1.976562 -0.65625 2.125 -0.710938 2.3125 -0.828125 C 2.507812 -0.953125 2.691406 -1.21875 2.859375 -1.625 C 3.023438 -2.039062 3.179688 -2.609375 3.328125 -3.328125 C 3.472656 -4.054688 3.546875 -5.019531 3.546875 -6.21875 L 3.546875 -46.03125 C 3.347656 -47.28125 3.09375 -48.097656 2.78125 -48.484375 C 2.46875 -48.867188 2.21875 -49.0625 2.03125 -49.0625 L 1.8125 -49.71875 L 8.609375 -52.25 L 8.609375 -6.21875 C 8.609375 -5.019531 8.664062 -4.054688 8.78125 -3.328125 C 8.90625 -2.609375 9.0625 -2.039062 9.25 -1.625 C 9.445312 -1.21875 9.640625 -0.953125 9.828125 -0.828125 C 10.023438 -0.710938 10.175781 -0.65625 10.28125 -0.65625 Z M 10.28125 0 "/></g></g></g><g fill="#292929" fill-opacity="1"><g transform="translate(226.554203, 203.934059)"><g><path d="M 2.453125 -13.25 C 1.828125 -15.613281 1.679688 -17.953125 2.015625 -20.265625 C 2.359375 -22.578125 3.097656 -24.707031 4.234375 -26.65625 C 5.367188 -28.613281 6.851562 -30.316406 8.6875 -31.765625 C 10.519531 -33.210938 12.617188 -34.253906 14.984375 -34.890625 C 17.347656 -35.515625 19.6875 -35.65625 22 -35.3125 C 24.3125 -34.976562 26.457031 -34.242188 28.4375 -33.109375 C 30.414062 -31.972656 32.128906 -30.488281 33.578125 -28.65625 C 35.023438 -26.820312 36.0625 -24.722656 36.6875 -22.359375 C 37.320312 -19.992188 37.46875 -17.65625 37.125 -15.34375 C 36.789062 -13.03125 36.054688 -10.894531 34.921875 -8.9375 C 33.785156 -6.976562 32.300781 -5.273438 30.46875 -3.828125 C 28.632812 -2.390625 26.535156 -1.351562 24.171875 -0.71875 C 21.804688 -0.09375 19.460938 0.0507812 17.140625 -0.28125 C 14.828125 -0.625 12.679688 -1.363281 10.703125 -2.5 C 8.734375 -3.632812 7.023438 -5.117188 5.578125 -6.953125 C 4.128906 -8.785156 3.085938 -10.882812 2.453125 -13.25 Z M 31.765625 -21.0625 C 31.285156 -22.800781 30.539062 -24.570312 29.53125 -26.375 C 28.519531 -28.1875 27.289062 -29.78125 25.84375 -31.15625 C 24.394531 -32.53125 22.753906 -33.539062 20.921875 -34.1875 C 19.085938 -34.84375 17.15625 -34.90625 15.125 -34.375 C 13.101562 -33.84375 11.472656 -32.84375 10.234375 -31.375 C 9.003906 -29.90625 8.097656 -28.21875 7.515625 -26.3125 C 6.941406 -24.40625 6.65625 -22.398438 6.65625 -20.296875 C 6.65625 -18.203125 6.894531 -16.285156 7.375 -14.546875 C 7.863281 -12.804688 8.613281 -11.019531 9.625 -9.1875 C 10.632812 -7.351562 11.863281 -5.757812 13.3125 -4.40625 C 14.757812 -3.0625 16.398438 -2.050781 18.234375 -1.375 C 20.066406 -0.695312 22 -0.648438 24.03125 -1.234375 C 26.050781 -1.765625 27.6875 -2.765625 28.9375 -4.234375 C 30.195312 -5.703125 31.113281 -7.390625 31.6875 -9.296875 C 32.269531 -11.203125 32.550781 -13.203125 32.53125 -15.296875 C 32.507812 -17.398438 32.253906 -19.320312 31.765625 -21.0625 Z M 31.765625 -21.0625 "/></g></g></g><g fill="#292929" fill-opacity="1"><g transform="translate(264.472202, 203.934059)"><g><path d="M 48.859375 -34.890625 L 55 -34.890625 L 55 -34.234375 C 54.71875 -34.234375 54.378906 -34.113281 53.984375 -33.875 C 53.597656 -33.632812 53.164062 -33.210938 52.6875 -32.609375 C 52.207031 -32.003906 51.664062 -31.15625 51.0625 -30.0625 C 50.457031 -28.976562 49.789062 -27.617188 49.0625 -25.984375 L 40.671875 -5.71875 L 43.0625 0 L 37.640625 0 L 27.9375 -23.453125 L 20.546875 -5.71875 L 22.9375 0 L 17.515625 0 L 5.71875 -28.375 C 5.132812 -29.820312 4.476562 -31.160156 3.75 -32.390625 C 3.03125 -33.617188 2.382812 -34.234375 1.8125 -34.234375 L 1.8125 -34.890625 L 10.125 -34.890625 L 10.125 -34.234375 C 9.789062 -34.234375 9.644531 -33.832031 9.6875 -33.03125 C 9.738281 -32.238281 10.203125 -30.78125 11.078125 -28.65625 L 20.1875 -6.59375 L 27.578125 -24.25 L 25.90625 -28.375 C 25.28125 -29.820312 24.601562 -31.160156 23.875 -32.390625 C 23.15625 -33.617188 22.503906 -34.234375 21.921875 -34.234375 L 21.921875 -34.890625 L 30.328125 -34.890625 L 30.328125 -34.234375 C 29.941406 -34.234375 29.769531 -33.832031 29.8125 -33.03125 C 29.863281 -32.238281 30.320312 -30.78125 31.1875 -28.65625 L 40.3125 -6.59375 L 48.703125 -26.703125 C 49.671875 -29.023438 50.175781 -30.859375 50.21875 -32.203125 C 50.269531 -33.554688 49.816406 -34.234375 48.859375 -34.234375 Z M 48.859375 -34.890625 "/></g></g></g><g fill="#292929" fill-opacity="1"><g transform="translate(53.478419, 203.973875)"><g><path d="M 43.421875 -44.65625 L 42.78125 -44.65625 C 41.71875 -45.8125 40.675781 -46.75 39.65625 -47.46875 C 38.644531 -48.195312 37.488281 -48.753906 36.1875 -49.140625 C 34.882812 -49.523438 33.363281 -49.789062 31.625 -49.9375 C 29.882812 -50.082031 27.785156 -50.15625 25.328125 -50.15625 L 25.328125 -6.21875 C 25.328125 -5.0625 25.382812 -4.109375 25.5 -3.359375 C 25.625 -2.617188 25.78125 -2.050781 25.96875 -1.65625 C 26.164062 -1.269531 26.359375 -1.003906 26.546875 -0.859375 C 26.742188 -0.722656 26.894531 -0.65625 27 -0.65625 L 27 0 L 18.53125 0 L 18.53125 -0.65625 C 18.625 -0.65625 18.765625 -0.722656 18.953125 -0.859375 C 19.148438 -1.003906 19.332031 -1.269531 19.5 -1.65625 C 19.675781 -2.050781 19.832031 -2.617188 19.96875 -3.359375 C 20.113281 -4.109375 20.1875 -5.0625 20.1875 -6.21875 L 20.1875 -50.15625 C 17.726562 -50.15625 15.628906 -50.082031 13.890625 -49.9375 C 12.160156 -49.789062 10.65625 -49.523438 9.375 -49.140625 C 8.09375 -48.753906 6.945312 -48.195312 5.9375 -47.46875 C 4.925781 -46.75 3.890625 -45.8125 2.828125 -44.65625 L 2.171875 -44.65625 L 2.171875 -50.8125 L 43.421875 -50.8125 Z M 43.421875 -44.65625 "/></g></g></g><g fill="#292929" fill-opacity="1"><g transform="translate(84.823945, 215.565978)"><g><path d="M 3.71875 -4.21875 C 3.820312 -4.15625 3.875 -4.066406 3.875 -3.953125 C 3.875 -3.878906 3.847656 -3.8125 3.796875 -3.75 C 3.742188 -3.675781 3.671875 -3.640625 3.578125 -3.640625 C 3.523438 -3.640625 3.46875 -3.65625 3.40625 -3.6875 C 3.144531 -3.832031 2.863281 -3.90625 2.5625 -3.90625 C 2.238281 -3.90625 1.953125 -3.832031 1.703125 -3.6875 C 1.460938 -3.550781 1.273438 -3.359375 1.140625 -3.109375 C 1.003906 -2.859375 0.9375 -2.566406 0.9375 -2.234375 C 0.9375 -1.878906 1.003906 -1.570312 1.140625 -1.3125 C 1.285156 -1.0625 1.476562 -0.867188 1.71875 -0.734375 C 1.96875 -0.597656 2.25 -0.53125 2.5625 -0.53125 C 2.875 -0.53125 3.15625 -0.609375 3.40625 -0.765625 C 3.457031 -0.796875 3.515625 -0.8125 3.578125 -0.8125 C 3.671875 -0.8125 3.742188 -0.773438 3.796875 -0.703125 C 3.847656 -0.628906 3.875 -0.554688 3.875 -0.484375 C 3.875 -0.441406 3.859375 -0.394531 3.828125 -0.34375 C 3.804688 -0.300781 3.769531 -0.269531 3.71875 -0.25 C 3.550781 -0.15625 3.363281 -0.078125 3.15625 -0.015625 C 2.957031 0.0351562 2.757812 0.0625 2.5625 0.0625 C 2.144531 0.0625 1.757812 -0.0234375 1.40625 -0.203125 C 1.0625 -0.390625 0.785156 -0.65625 0.578125 -1 C 0.378906 -1.351562 0.28125 -1.765625 0.28125 -2.234375 C 0.28125 -2.660156 0.378906 -3.046875 0.578125 -3.390625 C 0.773438 -3.742188 1.046875 -4.019531 1.390625 -4.21875 C 1.734375 -4.414062 2.125 -4.515625 2.5625 -4.515625 C 2.96875 -4.515625 3.351562 -4.414062 3.71875 -4.21875 Z M 3.71875 -4.21875 "/></g></g></g><g fill="#292929" fill-opacity="1"><g transform="translate(90.730358, 215.565978)"><g><path d="M 4.59375 -2.234375 C 4.59375 -1.804688 4.5 -1.414062 4.3125 -1.0625 C 4.125 -0.71875 3.867188 -0.441406 3.546875 -0.234375 C 3.222656 -0.0351562 2.851562 0.0625 2.4375 0.0625 C 2.019531 0.0625 1.644531 -0.0351562 1.3125 -0.234375 C 0.988281 -0.441406 0.734375 -0.71875 0.546875 -1.0625 C 0.367188 -1.414062 0.28125 -1.804688 0.28125 -2.234375 C 0.28125 -2.660156 0.367188 -3.050781 0.546875 -3.40625 C 0.734375 -3.757812 0.988281 -4.035156 1.3125 -4.234375 C 1.644531 -4.429688 2.019531 -4.53125 2.4375 -4.53125 C 2.851562 -4.53125 3.222656 -4.429688 3.546875 -4.234375 C 3.867188 -4.035156 4.125 -3.757812 4.3125 -3.40625 C 4.5 -3.050781 4.59375 -2.660156 4.59375 -2.234375 Z M 3.9375 -2.234375 C 3.9375 -2.554688 3.867188 -2.84375 3.734375 -3.09375 C 3.609375 -3.351562 3.429688 -3.554688 3.203125 -3.703125 C 2.984375 -3.859375 2.726562 -3.9375 2.4375 -3.9375 C 2.144531 -3.9375 1.882812 -3.863281 1.65625 -3.71875 C 1.425781 -3.570312 1.25 -3.367188 1.125 -3.109375 C 1 -2.847656 0.9375 -2.554688 0.9375 -2.234375 C 0.9375 -1.910156 1 -1.617188 1.125 -1.359375 C 1.25 -1.109375 1.425781 -0.910156 1.65625 -0.765625 C 1.882812 -0.617188 2.144531 -0.546875 2.4375 -0.546875 C 2.726562 -0.546875 2.984375 -0.617188 3.203125 -0.765625 C 3.429688 -0.910156 3.609375 -1.109375 3.734375 -1.359375 C 3.867188 -1.617188 3.9375 -1.910156 3.9375 -2.234375 Z M 3.9375 -2.234375 "/></g></g></g><g fill="#292929" fill-opacity="1"><g transform="translate(97.429407, 215.565978)"><g><path d="M 4.421875 -4.484375 C 4.503906 -4.472656 4.570312 -4.4375 4.625 -4.375 C 4.6875 -4.320312 4.71875 -4.253906 4.71875 -4.171875 L 4.71875 -0.3125 C 4.71875 -0.21875 4.6875 -0.140625 4.625 -0.078125 C 4.570312 -0.0234375 4.5 0 4.40625 0 C 4.3125 0 4.234375 -0.0234375 4.171875 -0.078125 C 4.117188 -0.140625 4.09375 -0.21875 4.09375 -0.3125 L 4.09375 -3.265625 L 2.84375 -1.390625 C 2.820312 -1.347656 2.785156 -1.3125 2.734375 -1.28125 C 2.691406 -1.257812 2.644531 -1.253906 2.59375 -1.265625 C 2.550781 -1.253906 2.507812 -1.257812 2.46875 -1.28125 C 2.425781 -1.3125 2.390625 -1.347656 2.359375 -1.390625 L 1.109375 -3.328125 L 1.109375 -0.3125 C 1.109375 -0.21875 1.082031 -0.140625 1.03125 -0.078125 C 0.976562 -0.0234375 0.90625 0 0.8125 0 C 0.726562 0 0.660156 -0.0234375 0.609375 -0.078125 C 0.554688 -0.140625 0.53125 -0.21875 0.53125 -0.3125 L 0.53125 -4.171875 C 0.53125 -4.253906 0.554688 -4.328125 0.609375 -4.390625 C 0.671875 -4.453125 0.75 -4.484375 0.84375 -4.484375 C 0.894531 -4.484375 0.941406 -4.46875 0.984375 -4.4375 C 1.035156 -4.414062 1.078125 -4.382812 1.109375 -4.34375 L 2.625 -2.046875 L 4.15625 -4.34375 C 4.226562 -4.4375 4.316406 -4.484375 4.421875 -4.484375 Z M 4.421875 -4.484375 "/></g></g></g><g fill="#292929" fill-opacity="1"><g transform="translate(104.511996, 215.565978)"><g><path d="M 2.3125 -4.46875 C 2.539062 -4.46875 2.75 -4.40625 2.9375 -4.28125 C 3.132812 -4.164062 3.289062 -4.003906 3.40625 -3.796875 C 3.519531 -3.585938 3.578125 -3.359375 3.578125 -3.109375 C 3.578125 -2.859375 3.519531 -2.625 3.40625 -2.40625 C 3.289062 -2.195312 3.132812 -2.03125 2.9375 -1.90625 C 2.75 -1.78125 2.539062 -1.71875 2.3125 -1.71875 L 1.125 -1.71875 L 1.125 -0.3125 C 1.125 -0.21875 1.09375 -0.140625 1.03125 -0.078125 C 0.976562 -0.0234375 0.910156 0 0.828125 0 C 0.734375 0 0.660156 -0.0234375 0.609375 -0.078125 C 0.554688 -0.140625 0.53125 -0.21875 0.53125 -0.3125 L 0.53125 -4.171875 C 0.53125 -4.253906 0.554688 -4.320312 0.609375 -4.375 C 0.671875 -4.4375 0.75 -4.46875 0.84375 -4.46875 Z M 2.3125 -2.296875 C 2.4375 -2.296875 2.546875 -2.332031 2.640625 -2.40625 C 2.734375 -2.488281 2.804688 -2.585938 2.859375 -2.703125 C 2.921875 -2.828125 2.953125 -2.960938 2.953125 -3.109375 C 2.953125 -3.328125 2.890625 -3.507812 2.765625 -3.65625 C 2.640625 -3.8125 2.488281 -3.890625 2.3125 -3.890625 L 1.125 -3.890625 L 1.125 -2.296875 Z M 2.3125 -2.296875 "/></g></g></g><g fill="#292929" fill-opacity="1"><g transform="translate(110.175509, 215.565978)"><g><path d="M 3.9375 -0.515625 C 3.976562 -0.484375 4.007812 -0.441406 4.03125 -0.390625 C 4.0625 -0.347656 4.078125 -0.304688 4.078125 -0.265625 C 4.078125 -0.171875 4.046875 -0.101562 3.984375 -0.0625 C 3.929688 -0.0195312 3.863281 0 3.78125 0 C 3.695312 0 3.628906 -0.015625 3.578125 -0.046875 C 3.453125 -0.117188 3.347656 -0.234375 3.265625 -0.390625 C 3.179688 -0.554688 3.140625 -0.800781 3.140625 -1.125 C 3.140625 -1.332031 3.078125 -1.488281 2.953125 -1.59375 C 2.828125 -1.695312 2.660156 -1.75 2.453125 -1.75 L 1.15625 -1.75 L 1.15625 -0.3125 C 1.15625 -0.21875 1.128906 -0.140625 1.078125 -0.078125 C 1.035156 -0.0234375 0.972656 0 0.890625 0 C 0.785156 0 0.695312 -0.0234375 0.625 -0.078125 C 0.5625 -0.140625 0.53125 -0.21875 0.53125 -0.3125 L 0.53125 -4.171875 C 0.53125 -4.253906 0.554688 -4.320312 0.609375 -4.375 C 0.671875 -4.4375 0.75 -4.46875 0.84375 -4.46875 L 2.640625 -4.46875 C 2.867188 -4.46875 3.078125 -4.410156 3.265625 -4.296875 C 3.453125 -4.191406 3.601562 -4.039062 3.71875 -3.84375 C 3.832031 -3.644531 3.890625 -3.421875 3.890625 -3.171875 C 3.890625 -2.929688 3.828125 -2.707031 3.703125 -2.5 C 3.578125 -2.289062 3.414062 -2.132812 3.21875 -2.03125 C 3.375 -1.957031 3.492188 -1.847656 3.578125 -1.703125 C 3.671875 -1.554688 3.722656 -1.382812 3.734375 -1.1875 C 3.753906 -0.945312 3.773438 -0.78125 3.796875 -0.6875 C 3.816406 -0.601562 3.863281 -0.546875 3.9375 -0.515625 Z M 2.625 -2.28125 C 2.726562 -2.28125 2.828125 -2.316406 2.921875 -2.390625 C 3.015625 -2.472656 3.09375 -2.578125 3.15625 -2.703125 C 3.21875 -2.835938 3.25 -2.988281 3.25 -3.15625 C 3.25 -3.351562 3.1875 -3.523438 3.0625 -3.671875 C 2.9375 -3.816406 2.78125 -3.890625 2.59375 -3.890625 L 1.15625 -3.890625 L 1.15625 -2.28125 Z M 2.625 -2.28125 "/></g></g></g><g fill="#292929" fill-opacity="1"><g transform="translate(116.3504, 215.565978)"><g><path d="M 3.0625 -0.59375 C 3.144531 -0.59375 3.21875 -0.5625 3.28125 -0.5 C 3.34375 -0.4375 3.375 -0.363281 3.375 -0.28125 C 3.375 -0.195312 3.34375 -0.128906 3.28125 -0.078125 C 3.21875 -0.0234375 3.144531 0 3.0625 0 L 0.84375 0 C 0.75 0 0.671875 -0.0234375 0.609375 -0.078125 C 0.554688 -0.140625 0.53125 -0.21875 0.53125 -0.3125 L 0.53125 -4.171875 C 0.53125 -4.253906 0.554688 -4.320312 0.609375 -4.375 C 0.671875 -4.4375 0.75 -4.46875 0.84375 -4.46875 L 3.0625 -4.46875 C 3.144531 -4.46875 3.21875 -4.441406 3.28125 -4.390625 C 3.34375 -4.335938 3.375 -4.265625 3.375 -4.171875 C 3.375 -4.085938 3.34375 -4.019531 3.28125 -3.96875 C 3.21875 -3.914062 3.144531 -3.890625 3.0625 -3.890625 L 1.15625 -3.890625 L 1.15625 -2.578125 L 2.78125 -2.578125 C 2.863281 -2.578125 2.929688 -2.550781 2.984375 -2.5 C 3.046875 -2.445312 3.078125 -2.375 3.078125 -2.28125 C 3.078125 -2.195312 3.046875 -2.128906 2.984375 -2.078125 C 2.929688 -2.023438 2.863281 -2 2.78125 -2 L 1.15625 -2 L 1.15625 -0.59375 Z M 3.0625 -0.59375 "/></g></g></g><g fill="#292929" fill-opacity="1"><g transform="translate(121.822141, 215.565978)"><g><path d="M 3.75 -4.46875 C 3.84375 -4.46875 3.921875 -4.4375 3.984375 -4.375 C 4.046875 -4.320312 4.078125 -4.253906 4.078125 -4.171875 L 4.078125 -0.3125 C 4.066406 -0.21875 4.03125 -0.140625 3.96875 -0.078125 C 3.914062 -0.0234375 3.84375 0 3.75 0 C 3.65625 0 3.578125 -0.0234375 3.515625 -0.078125 C 3.460938 -0.140625 3.4375 -0.21875 3.4375 -0.3125 L 3.4375 -1.96875 L 1.15625 -1.96875 L 1.15625 -0.3125 C 1.15625 -0.21875 1.125 -0.140625 1.0625 -0.078125 C 1 -0.0234375 0.925781 0 0.84375 0 C 0.75 0 0.671875 -0.0234375 0.609375 -0.078125 C 0.554688 -0.140625 0.53125 -0.21875 0.53125 -0.3125 L 0.53125 -4.171875 C 0.53125 -4.253906 0.554688 -4.320312 0.609375 -4.375 C 0.671875 -4.4375 0.75 -4.46875 0.84375 -4.46875 C 0.9375 -4.46875 1.007812 -4.4375 1.0625 -4.375 C 1.125 -4.320312 1.15625 -4.253906 1.15625 -4.171875 L 1.15625 -2.5625 L 3.4375 -2.5625 L 3.4375 -4.171875 C 3.4375 -4.253906 3.46875 -4.320312 3.53125 -4.375 C 3.59375 -4.4375 3.664062 -4.46875 3.75 -4.46875 Z M 3.75 -4.46875 "/></g></g></g><g fill="#292929" fill-opacity="1"><g transform="translate(128.246329, 215.565978)"><g><path d="M 3.0625 -0.59375 C 3.144531 -0.59375 3.21875 -0.5625 3.28125 -0.5 C 3.34375 -0.4375 3.375 -0.363281 3.375 -0.28125 C 3.375 -0.195312 3.34375 -0.128906 3.28125 -0.078125 C 3.21875 -0.0234375 3.144531 0 3.0625 0 L 0.84375 0 C 0.75 0 0.671875 -0.0234375 0.609375 -0.078125 C 0.554688 -0.140625 0.53125 -0.21875 0.53125 -0.3125 L 0.53125 -4.171875 C 0.53125 -4.253906 0.554688 -4.320312 0.609375 -4.375 C 0.671875 -4.4375 0.75 -4.46875 0.84375 -4.46875 L 3.0625 -4.46875 C 3.144531 -4.46875 3.21875 -4.441406 3.28125 -4.390625 C 3.34375 -4.335938 3.375 -4.265625 3.375 -4.171875 C 3.375 -4.085938 3.34375 -4.019531 3.28125 -3.96875 C 3.21875 -3.914062 3.144531 -3.890625 3.0625 -3.890625 L 1.15625 -3.890625 L 1.15625 -2.578125 L 2.78125 -2.578125 C 2.863281 -2.578125 2.929688 -2.550781 2.984375 -2.5 C 3.046875 -2.445312 3.078125 -2.375 3.078125 -2.28125 C 3.078125 -2.195312 3.046875 -2.128906 2.984375 -2.078125 C 2.929688 -2.023438 2.863281 -2 2.78125 -2 L 1.15625 -2 L 1.15625 -0.59375 Z M 3.0625 -0.59375 "/></g></g></g><g fill="#292929" fill-opacity="1"><g transform="translate(133.718068, 215.565978)"><g><path d="M 3.875 -4.46875 C 3.957031 -4.46875 4.019531 -4.441406 4.0625 -4.390625 C 4.113281 -4.335938 4.140625 -4.269531 4.140625 -4.1875 L 4.140625 -0.3125 C 4.140625 -0.21875 4.109375 -0.140625 4.046875 -0.078125 C 3.992188 -0.0234375 3.925781 0 3.84375 0 C 3.789062 0 3.742188 -0.00390625 3.703125 -0.015625 C 3.660156 -0.0351562 3.625 -0.0625 3.59375 -0.09375 L 1.09375 -3.359375 L 1.09375 -0.28125 C 1.09375 -0.195312 1.0625 -0.128906 1 -0.078125 C 0.945312 -0.0234375 0.882812 0 0.8125 0 C 0.726562 0 0.660156 -0.0234375 0.609375 -0.078125 C 0.554688 -0.128906 0.53125 -0.195312 0.53125 -0.28125 L 0.53125 -4.171875 C 0.53125 -4.253906 0.554688 -4.320312 0.609375 -4.375 C 0.671875 -4.4375 0.742188 -4.46875 0.828125 -4.46875 C 0.878906 -4.46875 0.925781 -4.457031 0.96875 -4.4375 C 1.019531 -4.425781 1.0625 -4.398438 1.09375 -4.359375 L 3.59375 -1.09375 L 3.59375 -4.1875 C 3.59375 -4.269531 3.617188 -4.335938 3.671875 -4.390625 C 3.722656 -4.441406 3.789062 -4.46875 3.875 -4.46875 Z M 3.875 -4.46875 "/></g></g></g><g fill="#292929" fill-opacity="1"><g transform="translate(140.22535, 215.565978)"><g><path d="M 1.890625 0.0625 C 1.578125 0.0625 1.300781 0.0195312 1.0625 -0.0625 C 0.820312 -0.15625 0.59375 -0.296875 0.375 -0.484375 C 0.289062 -0.566406 0.25 -0.65625 0.25 -0.75 C 0.25 -0.832031 0.273438 -0.898438 0.328125 -0.953125 C 0.390625 -1.015625 0.460938 -1.046875 0.546875 -1.046875 C 0.617188 -1.046875 0.679688 -1.023438 0.734375 -0.984375 C 0.898438 -0.828125 1.070312 -0.710938 1.25 -0.640625 C 1.4375 -0.566406 1.644531 -0.53125 1.875 -0.53125 C 2.144531 -0.53125 2.367188 -0.585938 2.546875 -0.703125 C 2.734375 -0.828125 2.828125 -0.984375 2.828125 -1.171875 C 2.828125 -1.398438 2.734375 -1.570312 2.546875 -1.6875 C 2.367188 -1.8125 2.09375 -1.914062 1.71875 -2 C 1.28125 -2.082031 0.941406 -2.222656 0.703125 -2.421875 C 0.472656 -2.628906 0.359375 -2.914062 0.359375 -3.28125 C 0.359375 -3.53125 0.421875 -3.75 0.546875 -3.9375 C 0.679688 -4.132812 0.863281 -4.28125 1.09375 -4.375 C 1.332031 -4.476562 1.597656 -4.53125 1.890625 -4.53125 C 2.160156 -4.53125 2.410156 -4.488281 2.640625 -4.40625 C 2.878906 -4.320312 3.070312 -4.210938 3.21875 -4.078125 C 3.3125 -3.984375 3.359375 -3.890625 3.359375 -3.796875 C 3.359375 -3.722656 3.328125 -3.65625 3.265625 -3.59375 C 3.210938 -3.53125 3.144531 -3.5 3.0625 -3.5 C 3.007812 -3.5 2.960938 -3.515625 2.921875 -3.546875 C 2.804688 -3.660156 2.648438 -3.753906 2.453125 -3.828125 C 2.265625 -3.910156 2.078125 -3.953125 1.890625 -3.953125 C 1.609375 -3.953125 1.382812 -3.890625 1.21875 -3.765625 C 1.050781 -3.648438 0.96875 -3.5 0.96875 -3.3125 C 0.96875 -3.101562 1.050781 -2.941406 1.21875 -2.828125 C 1.382812 -2.722656 1.632812 -2.628906 1.96875 -2.546875 C 2.300781 -2.472656 2.570312 -2.382812 2.78125 -2.28125 C 2.988281 -2.1875 3.148438 -2.050781 3.265625 -1.875 C 3.378906 -1.707031 3.4375 -1.484375 3.4375 -1.203125 C 3.4375 -0.953125 3.367188 -0.726562 3.234375 -0.53125 C 3.097656 -0.34375 2.910156 -0.195312 2.671875 -0.09375 C 2.429688 0.0078125 2.171875 0.0625 1.890625 0.0625 Z M 1.890625 0.0625 "/></g></g></g><g fill="#292929" fill-opacity="1"><g transform="translate(145.773801, 215.565978)"><g><path d="M 1.15625 -0.3125 C 1.15625 -0.21875 1.125 -0.140625 1.0625 -0.078125 C 1 -0.0234375 0.925781 0 0.84375 0 C 0.75 0 0.671875 -0.0234375 0.609375 -0.078125 C 0.554688 -0.140625 0.53125 -0.21875 0.53125 -0.3125 L 0.53125 -4.171875 C 0.53125 -4.253906 0.554688 -4.320312 0.609375 -4.375 C 0.671875 -4.4375 0.75 -4.46875 0.84375 -4.46875 C 0.9375 -4.46875 1.007812 -4.4375 1.0625 -4.375 C 1.125 -4.320312 1.15625 -4.253906 1.15625 -4.171875 Z M 1.15625 -0.3125 "/></g></g></g><g fill="#292929" fill-opacity="1"><g transform="translate(149.295911, 215.565978)"><g><path d="M 3.78125 -4.484375 C 3.863281 -4.484375 3.9375 -4.453125 4 -4.390625 C 4.0625 -4.335938 4.09375 -4.269531 4.09375 -4.1875 C 4.09375 -4.144531 4.082031 -4.097656 4.0625 -4.046875 L 2.4375 -0.203125 C 2.40625 -0.140625 2.359375 -0.0859375 2.296875 -0.046875 C 2.242188 -0.015625 2.191406 0 2.140625 0 C 2.078125 0 2.019531 -0.015625 1.96875 -0.046875 C 1.925781 -0.0859375 1.890625 -0.132812 1.859375 -0.1875 L 0.234375 -4.046875 C 0.210938 -4.085938 0.203125 -4.132812 0.203125 -4.1875 C 0.203125 -4.269531 0.234375 -4.335938 0.296875 -4.390625 C 0.359375 -4.453125 0.429688 -4.484375 0.515625 -4.484375 C 0.640625 -4.484375 0.734375 -4.414062 0.796875 -4.28125 L 2.1875 -0.984375 L 3.5 -4.28125 C 3.53125 -4.34375 3.566406 -4.390625 3.609375 -4.421875 C 3.660156 -4.460938 3.71875 -4.484375 3.78125 -4.484375 Z M 3.78125 -4.484375 "/></g></g></g><g fill="#292929" fill-opacity="1"><g transform="translate(155.419665, 215.565978)"><g><path d="M 3.0625 -0.59375 C 3.144531 -0.59375 3.21875 -0.5625 3.28125 -0.5 C 3.34375 -0.4375 3.375 -0.363281 3.375 -0.28125 C 3.375 -0.195312 3.34375 -0.128906 3.28125 -0.078125 C 3.21875 -0.0234375 3.144531 0 3.0625 0 L 0.84375 0 C 0.75 0 0.671875 -0.0234375 0.609375 -0.078125 C 0.554688 -0.140625 0.53125 -0.21875 0.53125 -0.3125 L 0.53125 -4.171875 C 0.53125 -4.253906 0.554688 -4.320312 0.609375 -4.375 C 0.671875 -4.4375 0.75 -4.46875 0.84375 -4.46875 L 3.0625 -4.46875 C 3.144531 -4.46875 3.21875 -4.441406 3.28125 -4.390625 C 3.34375 -4.335938 3.375 -4.265625 3.375 -4.171875 C 3.375 -4.085938 3.34375 -4.019531 3.28125 -3.96875 C 3.21875 -3.914062 3.144531 -3.890625 3.0625 -3.890625 L 1.15625 -3.890625 L 1.15625 -2.578125 L 2.78125 -2.578125 C 2.863281 -2.578125 2.929688 -2.550781 2.984375 -2.5 C 3.046875 -2.445312 3.078125 -2.375 3.078125 -2.28125 C 3.078125 -2.195312 3.046875 -2.128906 2.984375 -2.078125 C 2.929688 -2.023438 2.863281 -2 2.78125 -2 L 1.15625 -2 L 1.15625 -0.59375 Z M 3.0625 -0.59375 "/></g></g></g><g fill="#292929" fill-opacity="1"><g transform="translate(160.891407, 215.565978)"><g/></g></g><g fill="#292929" fill-opacity="1"><g transform="translate(164.490226, 215.565978)"><g><path d="M 3.4375 -4.46875 C 3.519531 -4.46875 3.585938 -4.441406 3.640625 -4.390625 C 3.703125 -4.335938 3.734375 -4.265625 3.734375 -4.171875 C 3.734375 -4.085938 3.703125 -4.019531 3.640625 -3.96875 C 3.585938 -3.914062 3.519531 -3.890625 3.4375 -3.890625 L 2.296875 -3.890625 L 2.296875 -0.3125 C 2.296875 -0.21875 2.265625 -0.140625 2.203125 -0.078125 C 2.140625 -0.0234375 2.0625 0 1.96875 0 C 1.875 0 1.796875 -0.0234375 1.734375 -0.078125 C 1.671875 -0.140625 1.640625 -0.21875 1.640625 -0.3125 L 1.640625 -3.890625 L 0.515625 -3.890625 C 0.421875 -3.890625 0.34375 -3.914062 0.28125 -3.96875 C 0.226562 -4.019531 0.203125 -4.09375 0.203125 -4.1875 C 0.203125 -4.269531 0.226562 -4.335938 0.28125 -4.390625 C 0.34375 -4.441406 0.421875 -4.46875 0.515625 -4.46875 Z M 3.4375 -4.46875 "/></g></g></g><g fill="#292929" fill-opacity="1"><g transform="translate(170.262407, 215.565978)"><g><path d="M 3.96875 -0.390625 C 3.976562 -0.359375 3.984375 -0.320312 3.984375 -0.28125 C 3.984375 -0.1875 3.953125 -0.113281 3.890625 -0.0625 C 3.835938 -0.0078125 3.773438 0.015625 3.703125 0.015625 C 3.640625 0.015625 3.582031 0 3.53125 -0.03125 C 3.488281 -0.0703125 3.453125 -0.125 3.421875 -0.1875 L 3.015625 -1.125 L 1.046875 -1.125 L 0.65625 -0.171875 C 0.632812 -0.109375 0.597656 -0.0625 0.546875 -0.03125 C 0.503906 0 0.453125 0.015625 0.390625 0.015625 C 0.296875 0.015625 0.222656 -0.00390625 0.171875 -0.046875 C 0.128906 -0.0976562 0.109375 -0.164062 0.109375 -0.25 C 0.109375 -0.257812 0.113281 -0.289062 0.125 -0.34375 L 1.75 -4.296875 C 1.78125 -4.359375 1.820312 -4.40625 1.875 -4.4375 C 1.9375 -4.476562 2 -4.5 2.0625 -4.5 C 2.125 -4.5 2.179688 -4.476562 2.234375 -4.4375 C 2.285156 -4.40625 2.320312 -4.359375 2.34375 -4.296875 Z M 1.296875 -1.703125 L 2.78125 -1.703125 L 2.03125 -3.5 Z M 1.296875 -1.703125 "/></g></g></g><g fill="#292929" fill-opacity="1"><g transform="translate(176.194395, 215.565978)"><g><path d="M 1.890625 0.0625 C 1.578125 0.0625 1.300781 0.0195312 1.0625 -0.0625 C 0.820312 -0.15625 0.59375 -0.296875 0.375 -0.484375 C 0.289062 -0.566406 0.25 -0.65625 0.25 -0.75 C 0.25 -0.832031 0.273438 -0.898438 0.328125 -0.953125 C 0.390625 -1.015625 0.460938 -1.046875 0.546875 -1.046875 C 0.617188 -1.046875 0.679688 -1.023438 0.734375 -0.984375 C 0.898438 -0.828125 1.070312 -0.710938 1.25 -0.640625 C 1.4375 -0.566406 1.644531 -0.53125 1.875 -0.53125 C 2.144531 -0.53125 2.367188 -0.585938 2.546875 -0.703125 C 2.734375 -0.828125 2.828125 -0.984375 2.828125 -1.171875 C 2.828125 -1.398438 2.734375 -1.570312 2.546875 -1.6875 C 2.367188 -1.8125 2.09375 -1.914062 1.71875 -2 C 1.28125 -2.082031 0.941406 -2.222656 0.703125 -2.421875 C 0.472656 -2.628906 0.359375 -2.914062 0.359375 -3.28125 C 0.359375 -3.53125 0.421875 -3.75 0.546875 -3.9375 C 0.679688 -4.132812 0.863281 -4.28125 1.09375 -4.375 C 1.332031 -4.476562 1.597656 -4.53125 1.890625 -4.53125 C 2.160156 -4.53125 2.410156 -4.488281 2.640625 -4.40625 C 2.878906 -4.320312 3.070312 -4.210938 3.21875 -4.078125 C 3.3125 -3.984375 3.359375 -3.890625 3.359375 -3.796875 C 3.359375 -3.722656 3.328125 -3.65625 3.265625 -3.59375 C 3.210938 -3.53125 3.144531 -3.5 3.0625 -3.5 C 3.007812 -3.5 2.960938 -3.515625 2.921875 -3.546875 C 2.804688 -3.660156 2.648438 -3.753906 2.453125 -3.828125 C 2.265625 -3.910156 2.078125 -3.953125 1.890625 -3.953125 C 1.609375 -3.953125 1.382812 -3.890625 1.21875 -3.765625 C 1.050781 -3.648438 0.96875 -3.5 0.96875 -3.3125 C 0.96875 -3.101562 1.050781 -2.941406 1.21875 -2.828125 C 1.382812 -2.722656 1.632812 -2.628906 1.96875 -2.546875 C 2.300781 -2.472656 2.570312 -2.382812 2.78125 -2.28125 C 2.988281 -2.1875 3.148438 -2.050781 3.265625 -1.875 C 3.378906 -1.707031 3.4375 -1.484375 3.4375 -1.203125 C 3.4375 -0.953125 3.367188 -0.726562 3.234375 -0.53125 C 3.097656 -0.34375 2.910156 -0.195312 2.671875 -0.09375 C 2.429688 0.0078125 2.171875 0.0625 1.890625 0.0625 Z M 1.890625 0.0625 "/></g></g></g><g fill="#292929" fill-opacity="1"><g transform="translate(181.74285, 215.565978)"><g><path d="M 3.9375 -0.515625 C 3.976562 -0.453125 4 -0.382812 4 -0.3125 C 4 -0.21875 3.960938 -0.140625 3.890625 -0.078125 C 3.828125 -0.015625 3.75 0.015625 3.65625 0.015625 C 3.570312 0.015625 3.5 -0.0234375 3.4375 -0.109375 L 1.875 -2.109375 L 1.15625 -1.421875 L 1.15625 -0.3125 C 1.15625 -0.21875 1.125 -0.140625 1.0625 -0.078125 C 1.007812 -0.0234375 0.9375 0 0.84375 0 C 0.75 0 0.671875 -0.0234375 0.609375 -0.078125 C 0.554688 -0.140625 0.53125 -0.21875 0.53125 -0.3125 L 0.53125 -4.171875 C 0.53125 -4.253906 0.554688 -4.320312 0.609375 -4.375 C 0.671875 -4.4375 0.75 -4.46875 0.84375 -4.46875 C 0.9375 -4.46875 1.007812 -4.4375 1.0625 -4.375 C 1.125 -4.320312 1.15625 -4.253906 1.15625 -4.171875 L 1.15625 -2.171875 L 3.4375 -4.375 C 3.507812 -4.445312 3.585938 -4.484375 3.671875 -4.484375 C 3.753906 -4.484375 3.820312 -4.453125 3.875 -4.390625 C 3.925781 -4.328125 3.953125 -4.257812 3.953125 -4.1875 C 3.953125 -4.125 3.921875 -4.054688 3.859375 -3.984375 L 2.359375 -2.5625 Z M 3.9375 -0.515625 "/></g></g></g><g fill="#292929" fill-opacity="1"><g transform="translate(187.809073, 215.565978)"><g/></g></g><g fill="#292929" fill-opacity="1"><g transform="translate(191.407892, 215.565978)"><g><path d="M 4.421875 -4.484375 C 4.503906 -4.472656 4.570312 -4.4375 4.625 -4.375 C 4.6875 -4.320312 4.71875 -4.253906 4.71875 -4.171875 L 4.71875 -0.3125 C 4.71875 -0.21875 4.6875 -0.140625 4.625 -0.078125 C 4.570312 -0.0234375 4.5 0 4.40625 0 C 4.3125 0 4.234375 -0.0234375 4.171875 -0.078125 C 4.117188 -0.140625 4.09375 -0.21875 4.09375 -0.3125 L 4.09375 -3.265625 L 2.84375 -1.390625 C 2.820312 -1.347656 2.785156 -1.3125 2.734375 -1.28125 C 2.691406 -1.257812 2.644531 -1.253906 2.59375 -1.265625 C 2.550781 -1.253906 2.507812 -1.257812 2.46875 -1.28125 C 2.425781 -1.3125 2.390625 -1.347656 2.359375 -1.390625 L 1.109375 -3.328125 L 1.109375 -0.3125 C 1.109375 -0.21875 1.082031 -0.140625 1.03125 -0.078125 C 0.976562 -0.0234375 0.90625 0 0.8125 0 C 0.726562 0 0.660156 -0.0234375 0.609375 -0.078125 C 0.554688 -0.140625 0.53125 -0.21875 0.53125 -0.3125 L 0.53125 -4.171875 C 0.53125 -4.253906 0.554688 -4.328125 0.609375 -4.390625 C 0.671875 -4.453125 0.75 -4.484375 0.84375 -4.484375 C 0.894531 -4.484375 0.941406 -4.46875 0.984375 -4.4375 C 1.035156 -4.414062 1.078125 -4.382812 1.109375 -4.34375 L 2.625 -2.046875 L 4.15625 -4.34375 C 4.226562 -4.4375 4.316406 -4.484375 4.421875 -4.484375 Z M 4.421875 -4.484375 "/></g></g></g><g fill="#292929" fill-opacity="1"><g transform="translate(198.490484, 215.565978)"><g><path d="M 3.96875 -0.390625 C 3.976562 -0.359375 3.984375 -0.320312 3.984375 -0.28125 C 3.984375 -0.1875 3.953125 -0.113281 3.890625 -0.0625 C 3.835938 -0.0078125 3.773438 0.015625 3.703125 0.015625 C 3.640625 0.015625 3.582031 0 3.53125 -0.03125 C 3.488281 -0.0703125 3.453125 -0.125 3.421875 -0.1875 L 3.015625 -1.125 L 1.046875 -1.125 L 0.65625 -0.171875 C 0.632812 -0.109375 0.597656 -0.0625 0.546875 -0.03125 C 0.503906 0 0.453125 0.015625 0.390625 0.015625 C 0.296875 0.015625 0.222656 -0.00390625 0.171875 -0.046875 C 0.128906 -0.0976562 0.109375 -0.164062 0.109375 -0.25 C 0.109375 -0.257812 0.113281 -0.289062 0.125 -0.34375 L 1.75 -4.296875 C 1.78125 -4.359375 1.820312 -4.40625 1.875 -4.4375 C 1.9375 -4.476562 2 -4.5 2.0625 -4.5 C 2.125 -4.5 2.179688 -4.476562 2.234375 -4.4375 C 2.285156 -4.40625 2.320312 -4.359375 2.34375 -4.296875 Z M 1.296875 -1.703125 L 2.78125 -1.703125 L 2.03125 -3.5 Z M 1.296875 -1.703125 "/></g></g></g><g fill="#292929" fill-opacity="1"><g transform="translate(204.422472, 215.565978)"><g><path d="M 3.875 -4.46875 C 3.957031 -4.46875 4.019531 -4.441406 4.0625 -4.390625 C 4.113281 -4.335938 4.140625 -4.269531 4.140625 -4.1875 L 4.140625 -0.3125 C 4.140625 -0.21875 4.109375 -0.140625 4.046875 -0.078125 C 3.992188 -0.0234375 3.925781 0 3.84375 0 C 3.789062 0 3.742188 -0.00390625 3.703125 -0.015625 C 3.660156 -0.0351562 3.625 -0.0625 3.59375 -0.09375 L 1.09375 -3.359375 L 1.09375 -0.28125 C 1.09375 -0.195312 1.0625 -0.128906 1 -0.078125 C 0.945312 -0.0234375 0.882812 0 0.8125 0 C 0.726562 0 0.660156 -0.0234375 0.609375 -0.078125 C 0.554688 -0.128906 0.53125 -0.195312 0.53125 -0.28125 L 0.53125 -4.171875 C 0.53125 -4.253906 0.554688 -4.320312 0.609375 -4.375 C 0.671875 -4.4375 0.742188 -4.46875 0.828125 -4.46875 C 0.878906 -4.46875 0.925781 -4.457031 0.96875 -4.4375 C 1.019531 -4.425781 1.0625 -4.398438 1.09375 -4.359375 L 3.59375 -1.09375 L 3.59375 -4.1875 C 3.59375 -4.269531 3.617188 -4.335938 3.671875 -4.390625 C 3.722656 -4.441406 3.789062 -4.46875 3.875 -4.46875 Z M 3.875 -4.46875 "/></g></g></g><g fill="#292929" fill-opacity="1"><g transform="translate(210.929758, 215.565978)"><g><path d="M 3.96875 -0.390625 C 3.976562 -0.359375 3.984375 -0.320312 3.984375 -0.28125 C 3.984375 -0.1875 3.953125 -0.113281 3.890625 -0.0625 C 3.835938 -0.0078125 3.773438 0.015625 3.703125 0.015625 C 3.640625 0.015625 3.582031 0 3.53125 -0.03125 C 3.488281 -0.0703125 3.453125 -0.125 3.421875 -0.1875 L 3.015625 -1.125 L 1.046875 -1.125 L 0.65625 -0.171875 C 0.632812 -0.109375 0.597656 -0.0625 0.546875 -0.03125 C 0.503906 0 0.453125 0.015625 0.390625 0.015625 C 0.296875 0.015625 0.222656 -0.00390625 0.171875 -0.046875 C 0.128906 -0.0976562 0.109375 -0.164062 0.109375 -0.25 C 0.109375 -0.257812 0.113281 -0.289062 0.125 -0.34375 L 1.75 -4.296875 C 1.78125 -4.359375 1.820312 -4.40625 1.875 -4.4375 C 1.9375 -4.476562 2 -4.5 2.0625 -4.5 C 2.125 -4.5 2.179688 -4.476562 2.234375 -4.4375 C 2.285156 -4.40625 2.320312 -4.359375 2.34375 -4.296875 Z M 1.296875 -1.703125 L 2.78125 -1.703125 L 2.03125 -3.5 Z M 1.296875 -1.703125 "/></g></g></g><g fill="#292929" fill-opacity="1"><g transform="translate(216.861745, 215.565978)"><g><path d="M 3.8125 -2.359375 C 3.894531 -2.359375 3.960938 -2.328125 4.015625 -2.265625 C 4.078125 -2.203125 4.109375 -2.128906 4.109375 -2.046875 L 4.109375 -0.609375 C 4.109375 -0.492188 4.0625 -0.40625 3.96875 -0.34375 C 3.769531 -0.207031 3.550781 -0.101562 3.3125 -0.03125 C 3.082031 0.03125 2.84375 0.0625 2.59375 0.0625 C 2.164062 0.0625 1.773438 -0.0351562 1.421875 -0.234375 C 1.066406 -0.441406 0.785156 -0.722656 0.578125 -1.078125 C 0.378906 -1.429688 0.28125 -1.816406 0.28125 -2.234375 C 0.28125 -2.660156 0.378906 -3.046875 0.578125 -3.390625 C 0.785156 -3.742188 1.066406 -4.019531 1.421875 -4.21875 C 1.773438 -4.425781 2.164062 -4.53125 2.59375 -4.53125 C 2.8125 -4.53125 3.019531 -4.503906 3.21875 -4.453125 C 3.414062 -4.410156 3.59375 -4.34375 3.75 -4.25 C 3.800781 -4.226562 3.835938 -4.191406 3.859375 -4.140625 C 3.878906 -4.097656 3.890625 -4.050781 3.890625 -4 C 3.890625 -3.914062 3.859375 -3.84375 3.796875 -3.78125 C 3.742188 -3.71875 3.679688 -3.6875 3.609375 -3.6875 C 3.546875 -3.6875 3.488281 -3.703125 3.4375 -3.734375 C 3.15625 -3.867188 2.875 -3.9375 2.59375 -3.9375 C 2.289062 -3.9375 2.007812 -3.859375 1.75 -3.703125 C 1.5 -3.554688 1.300781 -3.351562 1.15625 -3.09375 C 1.007812 -2.832031 0.9375 -2.546875 0.9375 -2.234375 C 0.9375 -1.921875 1.007812 -1.632812 1.15625 -1.375 C 1.300781 -1.125 1.5 -0.921875 1.75 -0.765625 C 2.007812 -0.617188 2.289062 -0.546875 2.59375 -0.546875 C 2.738281 -0.546875 2.890625 -0.5625 3.046875 -0.59375 C 3.210938 -0.625 3.351562 -0.671875 3.46875 -0.734375 L 3.46875 -1.75 L 2.6875 -1.75 C 2.601562 -1.75 2.53125 -1.773438 2.46875 -1.828125 C 2.414062 -1.890625 2.390625 -1.960938 2.390625 -2.046875 C 2.390625 -2.128906 2.414062 -2.203125 2.46875 -2.265625 C 2.53125 -2.328125 2.601562 -2.359375 2.6875 -2.359375 Z M 3.8125 -2.359375 "/></g></g></g><g fill="#292929" fill-opacity="1"><g transform="translate(223.132512, 215.565978)"><g><path d="M 3.0625 -0.59375 C 3.144531 -0.59375 3.21875 -0.5625 3.28125 -0.5 C 3.34375 -0.4375 3.375 -0.363281 3.375 -0.28125 C 3.375 -0.195312 3.34375 -0.128906 3.28125 -0.078125 C 3.21875 -0.0234375 3.144531 0 3.0625 0 L 0.84375 0 C 0.75 0 0.671875 -0.0234375 0.609375 -0.078125 C 0.554688 -0.140625 0.53125 -0.21875 0.53125 -0.3125 L 0.53125 -4.171875 C 0.53125 -4.253906 0.554688 -4.320312 0.609375 -4.375 C 0.671875 -4.4375 0.75 -4.46875 0.84375 -4.46875 L 3.0625 -4.46875 C 3.144531 -4.46875 3.21875 -4.441406 3.28125 -4.390625 C 3.34375 -4.335938 3.375 -4.265625 3.375 -4.171875 C 3.375 -4.085938 3.34375 -4.019531 3.28125 -3.96875 C 3.21875 -3.914062 3.144531 -3.890625 3.0625 -3.890625 L 1.15625 -3.890625 L 1.15625 -2.578125 L 2.78125 -2.578125 C 2.863281 -2.578125 2.929688 -2.550781 2.984375 -2.5 C 3.046875 -2.445312 3.078125 -2.375 3.078125 -2.28125 C 3.078125 -2.195312 3.046875 -2.128906 2.984375 -2.078125 C 2.929688 -2.023438 2.863281 -2 2.78125 -2 L 1.15625 -2 L 1.15625 -0.59375 Z M 3.0625 -0.59375 "/></g></g></g><g fill="#292929" fill-opacity="1"><g transform="translate(228.604246, 215.565978)"><g><path d="M 4.421875 -4.484375 C 4.503906 -4.472656 4.570312 -4.4375 4.625 -4.375 C 4.6875 -4.320312 4.71875 -4.253906 4.71875 -4.171875 L 4.71875 -0.3125 C 4.71875 -0.21875 4.6875 -0.140625 4.625 -0.078125 C 4.570312 -0.0234375 4.5 0 4.40625 0 C 4.3125 0 4.234375 -0.0234375 4.171875 -0.078125 C 4.117188 -0.140625 4.09375 -0.21875 4.09375 -0.3125 L 4.09375 -3.265625 L 2.84375 -1.390625 C 2.820312 -1.347656 2.785156 -1.3125 2.734375 -1.28125 C 2.691406 -1.257812 2.644531 -1.253906 2.59375 -1.265625 C 2.550781 -1.253906 2.507812 -1.257812 2.46875 -1.28125 C 2.425781 -1.3125 2.390625 -1.347656 2.359375 -1.390625 L 1.109375 -3.328125 L 1.109375 -0.3125 C 1.109375 -0.21875 1.082031 -0.140625 1.03125 -0.078125 C 0.976562 -0.0234375 0.90625 0 0.8125 0 C 0.726562 0 0.660156 -0.0234375 0.609375 -0.078125 C 0.554688 -0.140625 0.53125 -0.21875 0.53125 -0.3125 L 0.53125 -4.171875 C 0.53125 -4.253906 0.554688 -4.328125 0.609375 -4.390625 C 0.671875 -4.453125 0.75 -4.484375 0.84375 -4.484375 C 0.894531 -4.484375 0.941406 -4.46875 0.984375 -4.4375 C 1.035156 -4.414062 1.078125 -4.382812 1.109375 -4.34375 L 2.625 -2.046875 L 4.15625 -4.34375 C 4.226562 -4.4375 4.316406 -4.484375 4.421875 -4.484375 Z M 4.421875 -4.484375 "/></g></g></g><g fill="#292929" fill-opacity="1"><g transform="translate(235.686839, 215.565978)"><g><path d="M 3.0625 -0.59375 C 3.144531 -0.59375 3.21875 -0.5625 3.28125 -0.5 C 3.34375 -0.4375 3.375 -0.363281 3.375 -0.28125 C 3.375 -0.195312 3.34375 -0.128906 3.28125 -0.078125 C 3.21875 -0.0234375 3.144531 0 3.0625 0 L 0.84375 0 C 0.75 0 0.671875 -0.0234375 0.609375 -0.078125 C 0.554688 -0.140625 0.53125 -0.21875 0.53125 -0.3125 L 0.53125 -4.171875 C 0.53125 -4.253906 0.554688 -4.320312 0.609375 -4.375 C 0.671875 -4.4375 0.75 -4.46875 0.84375 -4.46875 L 3.0625 -4.46875 C 3.144531 -4.46875 3.21875 -4.441406 3.28125 -4.390625 C 3.34375 -4.335938 3.375 -4.265625 3.375 -4.171875 C 3.375 -4.085938 3.34375 -4.019531 3.28125 -3.96875 C 3.21875 -3.914062 3.144531 -3.890625 3.0625 -3.890625 L 1.15625 -3.890625 L 1.15625 -2.578125 L 2.78125 -2.578125 C 2.863281 -2.578125 2.929688 -2.550781 2.984375 -2.5 C 3.046875 -2.445312 3.078125 -2.375 3.078125 -2.28125 C 3.078125 -2.195312 3.046875 -2.128906 2.984375 -2.078125 C 2.929688 -2.023438 2.863281 -2 2.78125 -2 L 1.15625 -2 L 1.15625 -0.59375 Z M 3.0625 -0.59375 "/></g></g></g><g fill="#292929" fill-opacity="1"><g transform="translate(241.158573, 215.565978)"><g><path d="M 3.875 -4.46875 C 3.957031 -4.46875 4.019531 -4.441406 4.0625 -4.390625 C 4.113281 -4.335938 4.140625 -4.269531 4.140625 -4.1875 L 4.140625 -0.3125 C 4.140625 -0.21875 4.109375 -0.140625 4.046875 -0.078125 C 3.992188 -0.0234375 3.925781 0 3.84375 0 C 3.789062 0 3.742188 -0.00390625 3.703125 -0.015625 C 3.660156 -0.0351562 3.625 -0.0625 3.59375 -0.09375 L 1.09375 -3.359375 L 1.09375 -0.28125 C 1.09375 -0.195312 1.0625 -0.128906 1 -0.078125 C 0.945312 -0.0234375 0.882812 0 0.8125 0 C 0.726562 0 0.660156 -0.0234375 0.609375 -0.078125 C 0.554688 -0.128906 0.53125 -0.195312 0.53125 -0.28125 L 0.53125 -4.171875 C 0.53125 -4.253906 0.554688 -4.320312 0.609375 -4.375 C 0.671875 -4.4375 0.742188 -4.46875 0.828125 -4.46875 C 0.878906 -4.46875 0.925781 -4.457031 0.96875 -4.4375 C 1.019531 -4.425781 1.0625 -4.398438 1.09375 -4.359375 L 3.59375 -1.09375 L 3.59375 -4.1875 C 3.59375 -4.269531 3.617188 -4.335938 3.671875 -4.390625 C 3.722656 -4.441406 3.789062 -4.46875 3.875 -4.46875 Z M 3.875 -4.46875 "/></g></g></g><g fill="#292929" fill-opacity="1"><g transform="translate(247.665859, 215.565978)"><g><path d="M 3.4375 -4.46875 C 3.519531 -4.46875 3.585938 -4.441406 3.640625 -4.390625 C 3.703125 -4.335938 3.734375 -4.265625 3.734375 -4.171875 C 3.734375 -4.085938 3.703125 -4.019531 3.640625 -3.96875 C 3.585938 -3.914062 3.519531 -3.890625 3.4375 -3.890625 L 2.296875 -3.890625 L 2.296875 -0.3125 C 2.296875 -0.21875 2.265625 -0.140625 2.203125 -0.078125 C 2.140625 -0.0234375 2.0625 0 1.96875 0 C 1.875 0 1.796875 -0.0234375 1.734375 -0.078125 C 1.671875 -0.140625 1.640625 -0.21875 1.640625 -0.3125 L 1.640625 -3.890625 L 0.515625 -3.890625 C 0.421875 -3.890625 0.34375 -3.914062 0.28125 -3.96875 C 0.226562 -4.019531 0.203125 -4.09375 0.203125 -4.1875 C 0.203125 -4.269531 0.226562 -4.335938 0.28125 -4.390625 C 0.34375 -4.441406 0.421875 -4.46875 0.515625 -4.46875 Z M 3.4375 -4.46875 "/></g></g></g><g fill="#292929" fill-opacity="1"><g transform="translate(253.43804, 215.565978)"><g/></g></g><g fill="#292929" fill-opacity="1"><g transform="translate(257.036851, 215.565978)"><g><path d="M 1.890625 0.0625 C 1.578125 0.0625 1.300781 0.0195312 1.0625 -0.0625 C 0.820312 -0.15625 0.59375 -0.296875 0.375 -0.484375 C 0.289062 -0.566406 0.25 -0.65625 0.25 -0.75 C 0.25 -0.832031 0.273438 -0.898438 0.328125 -0.953125 C 0.390625 -1.015625 0.460938 -1.046875 0.546875 -1.046875 C 0.617188 -1.046875 0.679688 -1.023438 0.734375 -0.984375 C 0.898438 -0.828125 1.070312 -0.710938 1.25 -0.640625 C 1.4375 -0.566406 1.644531 -0.53125 1.875 -0.53125 C 2.144531 -0.53125 2.367188 -0.585938 2.546875 -0.703125 C 2.734375 -0.828125 2.828125 -0.984375 2.828125 -1.171875 C 2.828125 -1.398438 2.734375 -1.570312 2.546875 -1.6875 C 2.367188 -1.8125 2.09375 -1.914062 1.71875 -2 C 1.28125 -2.082031 0.941406 -2.222656 0.703125 -2.421875 C 0.472656 -2.628906 0.359375 -2.914062 0.359375 -3.28125 C 0.359375 -3.53125 0.421875 -3.75 0.546875 -3.9375 C 0.679688 -4.132812 0.863281 -4.28125 1.09375 -4.375 C 1.332031 -4.476562 1.597656 -4.53125 1.890625 -4.53125 C 2.160156 -4.53125 2.410156 -4.488281 2.640625 -4.40625 C 2.878906 -4.320312 3.070312 -4.210938 3.21875 -4.078125 C 3.3125 -3.984375 3.359375 -3.890625 3.359375 -3.796875 C 3.359375 -3.722656 3.328125 -3.65625 3.265625 -3.59375 C 3.210938 -3.53125 3.144531 -3.5 3.0625 -3.5 C 3.007812 -3.5 2.960938 -3.515625 2.921875 -3.546875 C 2.804688 -3.660156 2.648438 -3.753906 2.453125 -3.828125 C 2.265625 -3.910156 2.078125 -3.953125 1.890625 -3.953125 C 1.609375 -3.953125 1.382812 -3.890625 1.21875 -3.765625 C 1.050781 -3.648438 0.96875 -3.5 0.96875 -3.3125 C 0.96875 -3.101562 1.050781 -2.941406 1.21875 -2.828125 C 1.382812 -2.722656 1.632812 -2.628906 1.96875 -2.546875 C 2.300781 -2.472656 2.570312 -2.382812 2.78125 -2.28125 C 2.988281 -2.1875 3.148438 -2.050781 3.265625 -1.875 C 3.378906 -1.707031 3.4375 -1.484375 3.4375 -1.203125 C 3.4375 -0.953125 3.367188 -0.726562 3.234375 -0.53125 C 3.097656 -0.34375 2.910156 -0.195312 2.671875 -0.09375 C 2.429688 0.0078125 2.171875 0.0625 1.890625 0.0625 Z M 1.890625 0.0625 "/></g></g></g><g fill="#292929" fill-opacity="1"><g transform="translate(262.585298, 215.565978)"><g><path d="M 3.609375 -4.1875 C 3.609375 -4.125 3.585938 -4.0625 3.546875 -4 L 2.171875 -2.0625 L 2.171875 -0.3125 C 2.171875 -0.21875 2.140625 -0.140625 2.078125 -0.078125 C 2.023438 -0.0234375 1.957031 0 1.875 0 C 1.789062 0 1.71875 -0.0234375 1.65625 -0.078125 C 1.601562 -0.140625 1.578125 -0.21875 1.578125 -0.3125 L 1.578125 -2.109375 L 0.203125 -3.953125 C 0.140625 -4.035156 0.109375 -4.113281 0.109375 -4.1875 C 0.109375 -4.269531 0.140625 -4.34375 0.203125 -4.40625 C 0.273438 -4.46875 0.351562 -4.5 0.4375 -4.5 C 0.539062 -4.5 0.625 -4.453125 0.6875 -4.359375 L 1.890625 -2.6875 L 3.046875 -4.34375 C 3.117188 -4.445312 3.203125 -4.5 3.296875 -4.5 C 3.378906 -4.5 3.453125 -4.46875 3.515625 -4.40625 C 3.578125 -4.34375 3.609375 -4.269531 3.609375 -4.1875 Z M 3.609375 -4.1875 "/></g></g></g><g fill="#292929" fill-opacity="1"><g transform="translate(268.127357, 215.565978)"><g><path d="M 1.890625 0.0625 C 1.578125 0.0625 1.300781 0.0195312 1.0625 -0.0625 C 0.820312 -0.15625 0.59375 -0.296875 0.375 -0.484375 C 0.289062 -0.566406 0.25 -0.65625 0.25 -0.75 C 0.25 -0.832031 0.273438 -0.898438 0.328125 -0.953125 C 0.390625 -1.015625 0.460938 -1.046875 0.546875 -1.046875 C 0.617188 -1.046875 0.679688 -1.023438 0.734375 -0.984375 C 0.898438 -0.828125 1.070312 -0.710938 1.25 -0.640625 C 1.4375 -0.566406 1.644531 -0.53125 1.875 -0.53125 C 2.144531 -0.53125 2.367188 -0.585938 2.546875 -0.703125 C 2.734375 -0.828125 2.828125 -0.984375 2.828125 -1.171875 C 2.828125 -1.398438 2.734375 -1.570312 2.546875 -1.6875 C 2.367188 -1.8125 2.09375 -1.914062 1.71875 -2 C 1.28125 -2.082031 0.941406 -2.222656 0.703125 -2.421875 C 0.472656 -2.628906 0.359375 -2.914062 0.359375 -3.28125 C 0.359375 -3.53125 0.421875 -3.75 0.546875 -3.9375 C 0.679688 -4.132812 0.863281 -4.28125 1.09375 -4.375 C 1.332031 -4.476562 1.597656 -4.53125 1.890625 -4.53125 C 2.160156 -4.53125 2.410156 -4.488281 2.640625 -4.40625 C 2.878906 -4.320312 3.070312 -4.210938 3.21875 -4.078125 C 3.3125 -3.984375 3.359375 -3.890625 3.359375 -3.796875 C 3.359375 -3.722656 3.328125 -3.65625 3.265625 -3.59375 C 3.210938 -3.53125 3.144531 -3.5 3.0625 -3.5 C 3.007812 -3.5 2.960938 -3.515625 2.921875 -3.546875 C 2.804688 -3.660156 2.648438 -3.753906 2.453125 -3.828125 C 2.265625 -3.910156 2.078125 -3.953125 1.890625 -3.953125 C 1.609375 -3.953125 1.382812 -3.890625 1.21875 -3.765625 C 1.050781 -3.648438 0.96875 -3.5 0.96875 -3.3125 C 0.96875 -3.101562 1.050781 -2.941406 1.21875 -2.828125 C 1.382812 -2.722656 1.632812 -2.628906 1.96875 -2.546875 C 2.300781 -2.472656 2.570312 -2.382812 2.78125 -2.28125 C 2.988281 -2.1875 3.148438 -2.050781 3.265625 -1.875 C 3.378906 -1.707031 3.4375 -1.484375 3.4375 -1.203125 C 3.4375 -0.953125 3.367188 -0.726562 3.234375 -0.53125 C 3.097656 -0.34375 2.910156 -0.195312 2.671875 -0.09375 C 2.429688 0.0078125 2.171875 0.0625 1.890625 0.0625 Z M 1.890625 0.0625 "/></g></g></g><g fill="#292929" fill-opacity="1"><g transform="translate(273.675804, 215.565978)"><g><path d="M 3.4375 -4.46875 C 3.519531 -4.46875 3.585938 -4.441406 3.640625 -4.390625 C 3.703125 -4.335938 3.734375 -4.265625 3.734375 -4.171875 C 3.734375 -4.085938 3.703125 -4.019531 3.640625 -3.96875 C 3.585938 -3.914062 3.519531 -3.890625 3.4375 -3.890625 L 2.296875 -3.890625 L 2.296875 -0.3125 C 2.296875 -0.21875 2.265625 -0.140625 2.203125 -0.078125 C 2.140625 -0.0234375 2.0625 0 1.96875 0 C 1.875 0 1.796875 -0.0234375 1.734375 -0.078125 C 1.671875 -0.140625 1.640625 -0.21875 1.640625 -0.3125 L 1.640625 -3.890625 L 0.515625 -3.890625 C 0.421875 -3.890625 0.34375 -3.914062 0.28125 -3.96875 C 0.226562 -4.019531 0.203125 -4.09375 0.203125 -4.1875 C 0.203125 -4.269531 0.226562 -4.335938 0.28125 -4.390625 C 0.34375 -4.441406 0.421875 -4.46875 0.515625 -4.46875 Z M 3.4375 -4.46875 "/></g></g></g><g fill="#292929" fill-opacity="1"><g transform="translate(279.447985, 215.565978)"><g><path d="M 3.0625 -0.59375 C 3.144531 -0.59375 3.21875 -0.5625 3.28125 -0.5 C 3.34375 -0.4375 3.375 -0.363281 3.375 -0.28125 C 3.375 -0.195312 3.34375 -0.128906 3.28125 -0.078125 C 3.21875 -0.0234375 3.144531 0 3.0625 0 L 0.84375 0 C 0.75 0 0.671875 -0.0234375 0.609375 -0.078125 C 0.554688 -0.140625 0.53125 -0.21875 0.53125 -0.3125 L 0.53125 -4.171875 C 0.53125 -4.253906 0.554688 -4.320312 0.609375 -4.375 C 0.671875 -4.4375 0.75 -4.46875 0.84375 -4.46875 L 3.0625 -4.46875 C 3.144531 -4.46875 3.21875 -4.441406 3.28125 -4.390625 C 3.34375 -4.335938 3.375 -4.265625 3.375 -4.171875 C 3.375 -4.085938 3.34375 -4.019531 3.28125 -3.96875 C 3.21875 -3.914062 3.144531 -3.890625 3.0625 -3.890625 L 1.15625 -3.890625 L 1.15625 -2.578125 L 2.78125 -2.578125 C 2.863281 -2.578125 2.929688 -2.550781 2.984375 -2.5 C 3.046875 -2.445312 3.078125 -2.375 3.078125 -2.28125 C 3.078125 -2.195312 3.046875 -2.128906 2.984375 -2.078125 C 2.929688 -2.023438 2.863281 -2 2.78125 -2 L 1.15625 -2 L 1.15625 -0.59375 Z M 3.0625 -0.59375 "/></g></g></g><g fill="#292929" fill-opacity="1"><g transform="translate(284.91972, 215.565978)"><g><path d="M 4.421875 -4.484375 C 4.503906 -4.472656 4.570312 -4.4375 4.625 -4.375 C 4.6875 -4.320312 4.71875 -4.253906 4.71875 -4.171875 L 4.71875 -0.3125 C 4.71875 -0.21875 4.6875 -0.140625 4.625 -0.078125 C 4.570312 -0.0234375 4.5 0 4.40625 0 C 4.3125 0 4.234375 -0.0234375 4.171875 -0.078125 C 4.117188 -0.140625 4.09375 -0.21875 4.09375 -0.3125 L 4.09375 -3.265625 L 2.84375 -1.390625 C 2.820312 -1.347656 2.785156 -1.3125 2.734375 -1.28125 C 2.691406 -1.257812 2.644531 -1.253906 2.59375 -1.265625 C 2.550781 -1.253906 2.507812 -1.257812 2.46875 -1.28125 C 2.425781 -1.3125 2.390625 -1.347656 2.359375 -1.390625 L 1.109375 -3.328125 L 1.109375 -0.3125 C 1.109375 -0.21875 1.082031 -0.140625 1.03125 -0.078125 C 0.976562 -0.0234375 0.90625 0 0.8125 0 C 0.726562 0 0.660156 -0.0234375 0.609375 -0.078125 C 0.554688 -0.140625 0.53125 -0.21875 0.53125 -0.3125 L 0.53125 -4.171875 C 0.53125 -4.253906 0.554688 -4.328125 0.609375 -4.390625 C 0.671875 -4.453125 0.75 -4.484375 0.84375 -4.484375 C 0.894531 -4.484375 0.941406 -4.46875 0.984375 -4.4375 C 1.035156 -4.414062 1.078125 -4.382812 1.109375 -4.34375 L 2.625 -2.046875 L 4.15625 -4.34375 C 4.226562 -4.4375 4.316406 -4.484375 4.421875 -4.484375 Z M 4.421875 -4.484375 "/></g></g></g></svg>